STARTFONT 2.1
COMMENT
COMMENT Converted from OpenType font "..\ttf\ITC Avant Garde Gothic CE Book.otf" by "otf2bdf.exe 3.0".
COMMENT
FONT -FreeType-AvantGarde CE-Medium-R-Normal--36-260-100-100-P-174-ISO10646-1
SIZE 26 100 100
FONTBOUNDINGBOX 44 45 -2 -9
STARTPROPERTIES 19
FOUNDRY "FreeType"
FAMILY_NAME "AvantGarde CE"
WEIGHT_NAME "Medium"
SLANT "R"
SETWIDTH_NAME "Normal"
ADD_STYLE_NAME ""
PIXEL_SIZE 36
POINT_SIZE 260
RESOLUTION_X 100
RESOLUTION_Y 100
SPACING "P"
AVERAGE_WIDTH 174
CHARSET_REGISTRY "ISO10646"
CHARSET_ENCODING "1"
FONT_ASCENT 26
FONT_DESCENT 6
COPYRIGHT "Copyright (c) 1985, 1987, 1989, 1990, 1991, 1992, 1997 Adobe Systems Incorporated.  All Rights Reserved.ITC Avant Garde Gothic is a registered trademark of International Typeface Corporation."
_OTF_FONTFILE "..\ttf\ITC Avant Garde Gothic CE Book.otf"
_OTF_PSNAME "AvantGardeCE-Book"
ENDPROPERTIES
CHARS 260
STARTCHAR 0020
ENCODING 32
SWIDTH 276 0
DWIDTH 10 0
BBX 0 0 0 0
BITMAP
ENDCHAR
STARTCHAR 0021
ENCODING 33
SWIDTH 304 0
DWIDTH 11 0
BBX 3 27 4 0
BITMAP
E0
E0
E0
E0
E0
E0
E0
E0
E0
E0
E0
E0
E0
E0
E0
E0
E0
E0
E0
E0
00
00
E0
E0
E0
E0
E0
ENDCHAR
STARTCHAR 0022
ENCODING 34
SWIDTH 304 0
DWIDTH 11 0
BBX 9 11 1 16
BITMAP
E380
E380
E380
E380
E380
E380
E380
E380
E380
E380
E380
ENDCHAR
STARTCHAR 0023
ENCODING 35
SWIDTH 553 0
DWIDTH 20 0
BBX 18 27 1 0
BITMAP
038700
038700
038700
030700
030600
030600
070600
070E00
7FFFC0
7FFFC0
060C00
060C00
060C00
0E0C00
0E1C00
0E1C00
0E1C00
FFFF80
FFFF80
0C1800
1C1800
1C3800
1C3800
1C3800
183800
183000
183000
ENDCHAR
STARTCHAR 0024
ENCODING 36
SWIDTH 553 0
DWIDTH 20 0
BBX 16 32 2 -3
BITMAP
01C0
01C0
01C0
07F0
1FFC
3C1E
380E
7007
7007
7000
7000
7800
3C00
1F00
0FE0
03F8
007C
001E
000E
0007
0007
E007
E007
7006
700E
3C1C
1FFC
0FF0
01C0
01C0
01C0
01C0
ENDCHAR
STARTCHAR 0025
ENCODING 37
SWIDTH 775 0
DWIDTH 28 0
BBX 27 27 1 0
BITMAP
0FC01C00
1FE01800
38703800
70383000
E01C6000
E01C6000
E01CC000
E01CC000
E01D8000
703B8000
38730000
1FE70000
0FC60000
000C0000
000C7E00
0018FF00
0019C380
003381C0
007300E0
006700E0
00E700E0
00C700E0
01C300E0
018381C0
0301C380
0300FF00
06007E00
ENDCHAR
STARTCHAR 0026
ENCODING 38
SWIDTH 747 0
DWIDTH 27 0
BBX 24 27 2 0
BITMAP
01F000
07FC00
0FFE00
0E0E00
1C0700
1C0700
1C0700
1E0700
0E0E00
071E00
07FC1C
03F01C
0FE038
1E7038
383870
701C70
F00EE0
E007C0
E003C0
E003E0
E003F0
F00778
700F3C
781E1E
3FFC0F
1FF807
07E002
ENDCHAR
STARTCHAR 0027
ENCODING 39
SWIDTH 193 0
DWIDTH 7 0
BBX 3 11 2 16
BITMAP
E0
E0
E0
E0
E0
E0
E0
E0
E0
E0
E0
ENDCHAR
STARTCHAR 0028
ENCODING 40
SWIDTH 360 0
DWIDTH 13 0
BBX 11 34 2 -7
BITMAP
0020
00E0
01E0
03C0
0780
0F00
1E00
1C00
3800
3800
7000
7000
7000
E000
E000
E000
E000
E000
E000
E000
E000
7000
7000
7000
3800
3800
1C00
1E00
0F00
0780
03C0
01E0
00E0
0020
ENDCHAR
STARTCHAR 0029
ENCODING 41
SWIDTH 360 0
DWIDTH 13 0
BBX 11 35 1 -6
BITMAP
8000
E000
F000
7800
3C00
1E00
0F00
0700
0780
0380
03C0
01C0
01C0
01E0
00E0
00E0
00E0
00E0
00E0
00E0
00E0
01C0
01C0
01C0
03C0
0380
0780
0700
0E00
1E00
3C00
7800
F000
C000
8000
ENDCHAR
STARTCHAR 002A
ENCODING 42
SWIDTH 415 0
DWIDTH 15 0
BBX 11 11 3 16
BITMAP
0E00
0E00
0E00
CE60
FFE0
7F80
1F00
3F00
3380
71C0
2000
ENDCHAR
STARTCHAR 002B
ENCODING 43
SWIDTH 609 0
DWIDTH 22 0
BBX 19 18 2 1
BITMAP
00E000
00E000
00E000
00E000
00E000
00E000
00E000
00E000
FFFFE0
FFFFE0
00E000
00E000
00E000
00E000
00E000
00E000
00E000
00E000
ENDCHAR
STARTCHAR 002C
ENCODING 44
SWIDTH 276 0
DWIDTH 10 0
BBX 6 7 1 -2
BITMAP
1C
18
38
30
70
60
E0
ENDCHAR
STARTCHAR 002D
ENCODING 45
SWIDTH 332 0
DWIDTH 12 0
BBX 10 2 1 10
BITMAP
FFC0
FFC0
ENDCHAR
STARTCHAR 002E
ENCODING 46
SWIDTH 276 0
DWIDTH 10 0
BBX 3 5 4 0
BITMAP
E0
E0
E0
E0
E0
ENDCHAR
STARTCHAR 002F
ENCODING 47
SWIDTH 443 0
DWIDTH 16 0
BBX 13 31 2 -4
BITMAP
0038
0038
0070
0070
0070
00E0
00E0
00E0
01C0
01C0
01C0
0380
0380
0380
0700
0700
0600
0E00
0E00
0C00
1C00
1C00
1800
3800
3800
3000
7000
7000
6000
E000
E000
ENDCHAR
STARTCHAR 0030
ENCODING 48
SWIDTH 553 0
DWIDTH 20 0
BBX 18 27 1 0
BITMAP
03F000
0FFC00
1FFE00
3C0F00
700380
700380
E001C0
E001C0
E001C0
E001C0
E001C0
E001C0
E001C0
E001C0
E001C0
E001C0
E001C0
E001C0
E001C0
E001C0
E001C0
700380
700380
380700
1FFE00
0FFC00
03F000
ENDCHAR
STARTCHAR 0031
ENCODING 49
SWIDTH 553 0
DWIDTH 20 0
BBX 7 27 5 0
BITMAP
FE
FE
0E
0E
0E
0E
0E
0E
0E
0E
0E
0E
0E
0E
0E
0E
0E
0E
0E
0E
0E
0E
0E
0E
0E
0E
0E
ENDCHAR
STARTCHAR 0032
ENCODING 50
SWIDTH 553 0
DWIDTH 20 0
BBX 17 27 2 0
BITMAP
03F000
0FF800
3F7E00
380E00
700700
700700
E00380
E00380
E00380
000380
000700
000700
000E00
001E00
003C00
007800
00F000
01E000
03C000
078000
0F0000
1E0000
3C0000
780000
F00000
FFFF80
FFFF80
ENDCHAR
STARTCHAR 0033
ENCODING 51
SWIDTH 553 0
DWIDTH 20 0
BBX 18 27 1 0
BITMAP
03F000
07F800
0FFC00
1C0E00
380F00
380700
380700
000700
000700
000E00
003C00
01F800
01FC00
001F00
000700
000380
0001C0
0001C0
E001C0
E001C0
E001C0
700380
700380
3C0700
3FFE00
0FFC00
03F000
ENDCHAR
STARTCHAR 0034
ENCODING 52
SWIDTH 553 0
DWIDTH 20 0
BBX 18 27 1 0
BITMAP
000F00
000F00
001F00
003F00
003700
007700
00E700
00E700
01C700
038700
038700
070700
0E0700
0E0700
1C0700
380700
380700
700700
E00700
E00700
FFFFC0
FFFFC0
000700
000700
000700
000700
000700
ENDCHAR
STARTCHAR 0035
ENCODING 53
SWIDTH 553 0
DWIDTH 20 0
BBX 18 27 1 0
BITMAP
1FFF00
1FFF00
1C0000
1C0000
180000
180000
380000
380000
380000
33F000
3FFC00
7C1E00
780700
300380
000380
0001C0
0001C0
0001C0
C001C0
E001C0
E001C0
E00380
700780
380F00
3FFE00
0FFC00
03F000
ENDCHAR
STARTCHAR 0036
ENCODING 54
SWIDTH 553 0
DWIDTH 20 0
BBX 18 27 1 0
BITMAP
007000
007000
00E000
01C000
01C000
038000
070000
070000
0E0000
1FF800
1FFC00
3E1F00
380700
700380
700380
E001C0
E001C0
E001C0
E001C0
E001C0
E001C0
700380
780380
3C0F00
1FFE00
0FFC00
03F000
ENDCHAR
STARTCHAR 0037
ENCODING 55
SWIDTH 553 0
DWIDTH 20 0
BBX 15 27 2 0
BITMAP
FFFE
FFFE
000E
000E
001C
001C
0018
0038
0030
0070
0070
00E0
00E0
00C0
01C0
0180
0380
0300
0700
0700
0E00
0E00
0C00
1C00
1800
3800
3800
ENDCHAR
STARTCHAR 0038
ENCODING 56
SWIDTH 553 0
DWIDTH 20 0
BBX 18 27 1 0
BITMAP
03F000
07F800
0FFC00
1C0E00
380700
380700
380700
380700
380700
1C0E00
1E1E00
07F800
0FFC00
1E1E00
380700
700380
700380
E001C0
E001C0
E001C0
E001C0
700380
700380
3C0700
1FFE00
0FFC00
03F000
ENDCHAR
STARTCHAR 0039
ENCODING 57
SWIDTH 553 0
DWIDTH 20 0
BBX 18 27 1 0
BITMAP
03F000
0FFC00
1FFE00
3C0F00
780780
700380
E001C0
E001C0
E001C0
E001C0
E001C0
E001C0
700380
700380
380780
3E1F00
0FFE00
07FE00
001C00
003800
003800
007000
00E000
00E000
01C000
038000
038000
ENDCHAR
STARTCHAR 003A
ENCODING 58
SWIDTH 276 0
DWIDTH 10 0
BBX 3 20 4 0
BITMAP
E0
E0
E0
E0
E0
00
00
00
00
00
00
00
00
00
00
E0
E0
E0
E0
E0
ENDCHAR
STARTCHAR 003B
ENCODING 59
SWIDTH 276 0
DWIDTH 10 0
BBX 6 22 1 -2
BITMAP
1C
1C
1C
1C
1C
00
00
00
00
00
00
00
00
00
00
1C
38
38
70
70
60
E0
ENDCHAR
STARTCHAR 003C
ENCODING 60
SWIDTH 609 0
DWIDTH 22 0
BBX 18 19 2 1
BITMAP
000040
0001C0
000FC0
003F00
00FC00
03E000
0F8000
3E0000
F80000
E00000
F80000
3E0000
0F8000
03F000
00FC00
003F00
0007C0
0001C0
000040
ENDCHAR
STARTCHAR 003D
ENCODING 61
SWIDTH 609 0
DWIDTH 22 0
BBX 18 10 2 4
BITMAP
FFFFC0
FFFFC0
000000
000000
000000
000000
000000
000000
FFFFC0
FFFFC0
ENDCHAR
STARTCHAR 003E
ENCODING 62
SWIDTH 609 0
DWIDTH 22 0
BBX 18 19 2 1
BITMAP
800000
E00000
FC0000
3F0000
0FC000
01F000
007C00
001F00
0007C0
0001C0
0007C0
001F00
007C00
03F000
0FC000
3F0000
F80000
E00000
800000
ENDCHAR
STARTCHAR 003F
ENCODING 63
SWIDTH 581 0
DWIDTH 21 0
BBX 17 27 2 0
BITMAP
03F000
0FFC00
1FFE00
380F00
700700
700380
E00380
E00380
E00380
000380
000700
000F00
001E00
003C00
007800
007000
00E000
00E000
01C000
01C000
000000
000000
01C000
01C000
01C000
01C000
01C000
ENDCHAR
STARTCHAR 0040
ENCODING 64
SWIDTH 858 0
DWIDTH 31 0
BBX 28 27 2 0
BITMAP
001FE000
00FFFC00
03E03E00
07800780
0E000380
1C0001C0
380000E0
380F98E0
703FD860
7078F870
60E07870
E0E03870
E1C03870
E1C03070
E1C03070
E1C030E0
E1C070E0
71E071C0
70F1F3C0
787FBF80
383F1E00
1C000000
1E000000
0F800100
03F00F00
00FFFE00
001FF000
ENDCHAR
STARTCHAR 0041
ENCODING 65
SWIDTH 747 0
DWIDTH 27 0
BBX 26 27 0 0
BITMAP
001E0000
001E0000
003F0000
003F0000
00330000
00738000
00738000
00E1C000
00E1C000
01C0E000
01C0E000
01C0E000
03807000
03807000
07003800
07003800
0FFFFC00
0FFFFC00
0C001C00
1C000E00
1C000E00
38000700
38000700
70000380
70000380
60000380
E00001C0
ENDCHAR
STARTCHAR 0042
ENCODING 66
SWIDTH 581 0
DWIDTH 21 0
BBX 17 27 3 0
BITMAP
FFC000
FFF000
E3F800
E03C00
E01E00
E00E00
E00E00
E00E00
E00E00
E00E00
E01C00
E07800
FFF000
FFFC00
E01E00
E00F00
E00700
E00380
E00380
E00380
E00380
E00380
E00700
E00F00
E0FE00
FFFC00
FFE000
ENDCHAR
STARTCHAR 0043
ENCODING 67
SWIDTH 803 0
DWIDTH 29 0
BBX 26 27 1 0
BITMAP
001FC000
00FFF800
03FDFC00
07C01F00
0F000780
1E0003C0
3C0001C0
38000000
70000000
70000000
60000000
E0000000
E0000000
E0000000
E0000000
E0000000
70000000
70000000
70000000
38000000
3C0001C0
1E000380
0F000780
07C01F00
03FDFC00
00FFF800
003FC000
ENDCHAR
STARTCHAR 0044
ENCODING 68
SWIDTH 747 0
DWIDTH 27 0
BBX 22 27 3 0
BITMAP
FFF000
FFFE00
E1FF80
E007C0
E001E0
E000F0
E00070
E00078
E00038
E00038
E0001C
E0001C
E0001C
E0001C
E0001C
E0001C
E0001C
E00018
E00038
E00038
E00070
E000E0
E001E0
E007C0
E1FF80
FFFE00
FFF000
ENDCHAR
STARTCHAR 0045
ENCODING 69
SWIDTH 526 0
DWIDTH 19 0
BBX 15 27 2 0
BITMAP
FFFE
FFFE
E000
E000
E000
E000
E000
E000
E000
E000
E000
E000
FFFE
FFFE
E000
E000
E000
E000
E000
E000
E000
E000
E000
E000
E000
FFFE
FFFE
ENDCHAR
STARTCHAR 0046
ENCODING 70
SWIDTH 498 0
DWIDTH 18 0
BBX 14 27 2 0
BITMAP
FFFC
FFFC
E000
E000
E000
E000
E000
E000
E000
E000
E000
E000
E000
FFF8
FFF8
E000
E000
E000
E000
E000
E000
E000
E000
E000
E000
E000
E000
ENDCHAR
STARTCHAR 0047
ENCODING 71
SWIDTH 858 0
DWIDTH 31 0
BBX 29 27 1 0
BITMAP
001FE000
00FFF800
03FDFE00
07C01F00
0F000780
1E0003C0
3C0001E0
380000E0
70000000
70000000
70000000
E0000000
E0000000
E0000000
E0000000
E01FFFF8
E01FFFF8
70000070
70000070
380000E0
3C0000E0
1E0001C0
0F000780
07C00F00
03FDFE00
00FFF800
001FC000
ENDCHAR
STARTCHAR 0048
ENCODING 72
SWIDTH 692 0
DWIDTH 25 0
BBX 19 27 3 0
BITMAP
E000E0
E000E0
E000E0
E000E0
E000E0
E000E0
E000E0
E000E0
E000E0
E000E0
E000E0
E000E0
FFFFE0
FFFFE0
E000E0
E000E0
E000E0
E000E0
E000E0
E000E0
E000E0
E000E0
E000E0
E000E0
E000E0
E000E0
E000E0
ENDCHAR
STARTCHAR 0049
ENCODING 73
SWIDTH 221 0
DWIDTH 8 0
BBX 3 27 3 0
BITMAP
E0
E0
E0
E0
E0
E0
E0
E0
E0
E0
E0
E0
E0
E0
E0
E0
E0
E0
E0
E0
E0
E0
E0
E0
E0
E0
E0
ENDCHAR
STARTCHAR 004A
ENCODING 74
SWIDTH 470 0
DWIDTH 17 0
BBX 15 27 0 0
BITMAP
000E
000E
000E
000E
000E
000E
000E
000E
000E
000E
000E
000E
000E
000E
000E
000E
000E
000E
000E
000E
E00E
600E
701C
781C
3EF8
1FF0
07C0
ENDCHAR
STARTCHAR 004B
ENCODING 75
SWIDTH 581 0
DWIDTH 21 0
BBX 18 27 3 0
BITMAP
E001C0
E00380
E00780
E00F00
E00E00
E01C00
E03800
E07800
E0F000
E0E000
E1C000
E38000
E78000
E70000
EF8000
FFC000
F9E000
F8E000
F07000
E07800
E03C00
E01C00
E00E00
E00700
E00780
E00380
E001C0
ENDCHAR
STARTCHAR 004C
ENCODING 76
SWIDTH 470 0
DWIDTH 17 0
BBX 14 27 3 0
BITMAP
E000
E000
E000
E000
E000
E000
E000
E000
E000
E000
E000
E000
E000
E000
E000
E000
E000
E000
E000
E000
E000
E000
E000
E000
E000
FFFC
FFFC
ENDCHAR
STARTCHAR 004D
ENCODING 77
SWIDTH 913 0
DWIDTH 33 0
BBX 28 27 3 0
BITMAP
F80001F0
F80001F0
F80001F0
FC0003F0
EC000370
EE000770
EE000670
E6000E70
E7000E70
E3000C70
E3801C70
E3801870
E1C03870
E1C03870
E0C07070
E0E07070
E0E06070
E070E070
E070E070
E031C070
E039C070
E0398070
E01F8070
E01F0070
E00F0070
E00F0070
E0060070
ENDCHAR
STARTCHAR 004E
ENCODING 78
SWIDTH 747 0
DWIDTH 27 0
BBX 21 27 3 0
BITMAP
F00038
F80038
F80038
FC0038
EE0038
EE0038
E70038
E38038
E38038
E1C038
E0C038
E0E038
E07038
E07038
E03838
E01C38
E01C38
E00E38
E00738
E00738
E003B8
E001F8
E001F8
E000F8
E00078
E00078
E00038
ENDCHAR
STARTCHAR 004F
ENCODING 79
SWIDTH 858 0
DWIDTH 31 0
BBX 29 27 1 0
BITMAP
001FE000
00FFF800
03FDFE00
07C01F00
0F000780
1E0003C0
3C0001E0
380000F0
70000070
70000070
70000038
E0000038
E0000038
E0000038
E0000038
E0000038
F0000038
70000070
70000070
380000F0
3C0000E0
1E0001C0
0F000780
07C00F00
03FDFE00
00FFF800
001FC000
ENDCHAR
STARTCHAR 0050
ENCODING 80
SWIDTH 581 0
DWIDTH 21 0
BBX 18 27 3 0
BITMAP
FFF000
FFFC00
E0FF00
E00780
E00380
E003C0
E001C0
E001C0
E001C0
E001C0
E00380
E00380
E00700
E07F00
FFFC00
FFF000
E00000
E00000
E00000
E00000
E00000
E00000
E00000
E00000
E00000
E00000
E00000
ENDCHAR
STARTCHAR 0051
ENCODING 81
SWIDTH 858 0
DWIDTH 31 0
BBX 29 27 1 0
BITMAP
001FE000
00FFF800
03FDFE00
07C01F00
0F000780
1E0001C0
3C0001E0
380000F0
70000070
70000070
70000038
E0000038
E0000038
E0000038
E0000038
E0000038
E7FC0038
7FFF8070
7C0FC070
3801F0F0
3C0078E0
1E001FC0
0F000F80
07C01F80
03FDFFF0
00FFF8F8
001FC078
ENDCHAR
STARTCHAR 0052
ENCODING 82
SWIDTH 609 0
DWIDTH 22 0
BBX 19 27 2 0
BITMAP
FFF000
FFFE00
E0FF00
E00780
E003C0
E001C0
E000E0
E000E0
E000E0
E000E0
E000E0
E001C0
E001C0
E00380
E01F80
E3FF00
E1FC00
E0E000
E0F000
E07800
E03800
E01C00
E01E00
E00F00
E00700
E00380
E003C0
ENDCHAR
STARTCHAR 0053
ENCODING 83
SWIDTH 498 0
DWIDTH 18 0
BBX 18 27 0 0
BITMAP
03F000
0FFC00
1FFE00
3C0F00
380700
700380
700380
700000
700000
380000
3E0000
1FC000
07F800
01FE00
001F00
000780
000380
0001C0
0001C0
E001C0
7001C0
7001C0
700380
3C0700
1FFF00
0FFC00
03F000
ENDCHAR
STARTCHAR 0054
ENCODING 84
SWIDTH 415 0
DWIDTH 15 0
BBX 15 27 0 0
BITMAP
FFFE
FFFE
0380
0380
0380
0380
0380
0380
0380
0380
0380
0380
0380
0380
0380
0380
0380
0380
0380
0380
0380
0380
0380
0380
0380
0380
0380
ENDCHAR
STARTCHAR 0055
ENCODING 85
SWIDTH 664 0
DWIDTH 24 0
BBX 18 27 3 0
BITMAP
E001C0
E001C0
E001C0
E001C0
E001C0
E001C0
E001C0
E001C0
E001C0
E001C0
E001C0
E001C0
E001C0
E001C0
E001C0
E001C0
E001C0
E001C0
E001C0
E001C0
E001C0
700380
780380
3C0700
1FBE00
0FFC00
03F000
ENDCHAR
STARTCHAR 0056
ENCODING 86
SWIDTH 692 0
DWIDTH 25 0
BBX 25 27 0 0
BITMAP
E0000380
70000300
70000700
38000700
38000E00
38000E00
1C000C00
1C001C00
0E001C00
0E003800
06003800
07003000
07007000
03806000
0380E000
0180E000
01C0C000
01C1C000
00E18000
00E38000
00638000
00730000
00770000
003E0000
003E0000
001E0000
001C0000
ENDCHAR
STARTCHAR 0057
ENCODING 87
SWIDTH 969 0
DWIDTH 35 0
BBX 34 27 0 0
BITMAP
E000C001C0
6001E001C0
7001E00180
7001E00380
7001F00380
3003F00300
3803F00700
3803300700
3807380700
1C07380600
1C06180E00
1C06180E00
0C0E1C0C00
0E0E1C0C00
0E0C0C1C00
0E0C0E1C00
061C0E1800
071C0E3800
0718063800
0318073000
03B8073000
03B8077000
03B0037000
01F003E000
01F003E000
01F001E000
00E001C000
ENDCHAR
STARTCHAR 0058
ENCODING 88
SWIDTH 609 0
DWIDTH 22 0
BBX 21 27 0 0
BITMAP
700070
7800F0
3800E0
1C01C0
1E01C0
0E0380
070700
070700
038E00
01DC00
01DC00
00F800
00F800
007000
00F800
01FC00
01DC00
038E00
078F00
070700
0E0380
0E0380
1C01C0
3800E0
3800E0
700070
E00038
ENDCHAR
STARTCHAR 0059
ENCODING 89
SWIDTH 581 0
DWIDTH 21 0
BBX 21 27 0 0
BITMAP
E00038
700038
700070
380070
3800E0
1C00E0
1C01C0
0E0180
0E0380
070700
070700
038E00
038E00
01DC00
01DC00
00F800
00F800
007000
007000
007000
007000
007000
007000
007000
007000
007000
007000
ENDCHAR
STARTCHAR 005A
ENCODING 90
SWIDTH 470 0
DWIDTH 17 0
BBX 17 27 0 0
BITMAP
FFFF80
FFFF80
000380
000700
000700
000E00
001C00
001C00
003800
007800
007000
00E000
00E000
01C000
038000
038000
070000
0F0000
0E0000
1C0000
1C0000
380000
700000
700000
E00000
FFFF80
FFFF80
ENDCHAR
STARTCHAR 005B
ENCODING 91
SWIDTH 360 0
DWIDTH 13 0
BBX 7 34 5 -8
BITMAP
02
0E
1E
3C
78
70
70
E0
E0
E0
E0
E0
E0
E0
E0
E0
E0
E0
E0
E0
E0
E0
E0
E0
E0
E0
E0
E0
70
78
3C
1E
0E
02
ENDCHAR
STARTCHAR 005C
ENCODING 92
SWIDTH 609 0
DWIDTH 22 0
BBX 13 31 4 -4
BITMAP
E000
E000
7000
7000
7000
3800
3800
3800
1C00
1C00
1C00
0E00
0E00
0E00
0700
0700
0700
0380
0380
0380
01C0
01C0
01C0
00E0
00E0
00E0
0070
0070
0070
0038
0038
ENDCHAR
STARTCHAR 005D
ENCODING 93
SWIDTH 360 0
DWIDTH 13 0
BBX 7 34 1 -8
BITMAP
80
E0
F0
78
3C
1C
0E
0E
0E
0E
0E
0E
0E
0E
0E
0E
0E
0E
0E
0E
0E
0E
0E
0E
0E
0E
0E
0E
1C
3C
78
F0
E0
80
ENDCHAR
STARTCHAR 005E
ENCODING 94
SWIDTH 609 0
DWIDTH 22 0
BBX 18 16 2 11
BITMAP
00C000
01E000
01E000
03F000
033000
073800
061800
0E1C00
0C0C00
1C0E00
180600
380700
300300
700380
600180
E001C0
ENDCHAR
STARTCHAR 005F
ENCODING 95
SWIDTH 498 0
DWIDTH 18 0
BBX 18 2 0 -4
BITMAP
FFFFC0
FFFFC0
ENDCHAR
STARTCHAR 0060
ENCODING 96
SWIDTH 387 0
DWIDTH 14 0
BBX 8 6 2 23
BITMAP
40
F0
7C
3F
0F
02
ENDCHAR
STARTCHAR 0061
ENCODING 97
SWIDTH 692 0
DWIDTH 25 0
BBX 22 20 1 0
BITMAP
00FC1C
07FF9C
0F87DC
1E01FC
38007C
70003C
70003C
60001C
E0001C
E0001C
E0001C
E0001C
60001C
70003C
70003C
38007C
1E01FC
0F87DC
07FF1C
00FC1C
ENDCHAR
STARTCHAR 0062
ENCODING 98
SWIDTH 692 0
DWIDTH 25 0
BBX 22 27 2 0
BITMAP
E00000
E00000
E00000
E00000
E00000
E00000
E00000
E0FE00
E3FF80
EF87C0
FE01E0
F80070
F00038
F00038
E0001C
E0001C
E0001C
E0001C
E0001C
E0001C
F00038
F80038
F80070
FE01E0
EF87C0
E3FF80
E0FC00
ENDCHAR
STARTCHAR 0063
ENCODING 99
SWIDTH 636 0
DWIDTH 23 0
BBX 21 20 1 0
BITMAP
00FC00
07FF80
0F87C0
1E01E0
380070
700038
700000
600000
E00000
E00000
E00000
E00000
600000
700000
780038
380070
1E00E0
0F87C0
07FF80
00FC00
ENDCHAR
STARTCHAR 0064
ENCODING 100
SWIDTH 692 0
DWIDTH 25 0
BBX 22 27 1 0
BITMAP
00001C
00001C
00001C
00001C
00001C
00001C
00001C
00FC1C
07FF9C
0F87DC
1E01FC
38007C
70003C
70003C
60001C
E0001C
E0001C
E0001C
E0001C
60001C
70003C
70003C
38007C
1E01FC
0F87DC
07FF1C
00FC1C
ENDCHAR
STARTCHAR 0065
ENCODING 101
SWIDTH 636 0
DWIDTH 23 0
BBX 21 20 1 0
BITMAP
01FC00
07FF00
0F8F80
1C01C0
3800E0
700070
700070
600038
E00038
FFFFF8
FFFFF8
E00000
E00000
700070
700070
3800E0
1C01C0
0F8F80
07FF00
01FC00
ENDCHAR
STARTCHAR 0066
ENCODING 102
SWIDTH 304 0
DWIDTH 11 0
BBX 11 27 1 0
BITMAP
01E0
07E0
0FC0
0E00
1C00
1C00
1C00
FFE0
FFE0
1C00
1C00
1C00
1C00
1C00
1C00
1C00
1C00
1C00
1C00
1C00
1C00
1C00
1C00
1C00
1C00
1C00
1C00
ENDCHAR
STARTCHAR 0067
ENCODING 103
SWIDTH 664 0
DWIDTH 24 0
BBX 21 27 1 -7
BITMAP
00FC38
07FF38
0F8FB8
1C01F8
3800F8
700078
700078
600038
E00038
E00038
E00038
E00038
E00038
700078
780078
3800F8
1E01F8
0F8FB8
07FF38
01FC38
700038
380070
3C0070
1E01E0
0F87C0
07FF80
00FE00
ENDCHAR
STARTCHAR 0068
ENCODING 104
SWIDTH 609 0
DWIDTH 22 0
BBX 18 27 2 0
BITMAP
E00000
E00000
E00000
E00000
E00000
E00000
E00000
E3F000
E7FC00
EF3E00
F80700
F00380
F00380
E001C0
E001C0
E001C0
E001C0
E001C0
E001C0
E001C0
E001C0
E001C0
E001C0
E001C0
E001C0
E001C0
E001C0
ENDCHAR
STARTCHAR 0069
ENCODING 105
SWIDTH 193 0
DWIDTH 7 0
BBX 3 27 2 0
BITMAP
E0
E0
E0
E0
E0
00
00
E0
E0
E0
E0
E0
E0
E0
E0
E0
E0
E0
E0
E0
E0
E0
E0
E0
E0
E0
E0
ENDCHAR
STARTCHAR 006A
ENCODING 106
SWIDTH 193 0
DWIDTH 7 0
BBX 7 34 -2 -7
BITMAP
0E
0E
0E
0E
0E
00
00
0E
0E
0E
0E
0E
0E
0E
0E
0E
0E
0E
0E
0E
0E
0E
0E
0E
0E
0E
0E
0E
0E
0E
1C
FC
F8
E0
ENDCHAR
STARTCHAR 006B
ENCODING 107
SWIDTH 498 0
DWIDTH 18 0
BBX 16 27 2 0
BITMAP
E000
E000
E000
E000
E000
E000
E000
E00E
E01C
E03C
E038
E070
E0E0
E1E0
E1C0
E380
E700
EF00
EF80
FFC0
F9E0
F0E0
F070
E038
E01C
E01E
E00F
ENDCHAR
STARTCHAR 006C
ENCODING 108
SWIDTH 193 0
DWIDTH 7 0
BBX 3 27 2 0
BITMAP
E0
E0
E0
E0
E0
E0
E0
E0
E0
E0
E0
E0
E0
E0
E0
E0
E0
E0
E0
E0
E0
E0
E0
E0
E0
E0
E0
ENDCHAR
STARTCHAR 006D
ENCODING 109
SWIDTH 941 0
DWIDTH 34 0
BBX 30 20 2 0
BITMAP
E3E01F80
EFF87FE0
FE3EF1F0
F80EE078
F007C038
F007801C
E003801C
E003801C
E003801C
E003801C
E003801C
E003801C
E003801C
E003801C
E003801C
E003801C
E003801C
E003801C
E003801C
E003801C
ENDCHAR
STARTCHAR 006E
ENCODING 110
SWIDTH 609 0
DWIDTH 22 0
BBX 18 20 2 0
BITMAP
E3F000
E7FC00
EF3F00
F80700
F00380
F00380
E001C0
E001C0
E001C0
E001C0
E001C0
E001C0
E001C0
E001C0
E001C0
E001C0
E001C0
E001C0
E001C0
E001C0
ENDCHAR
STARTCHAR 006F
ENCODING 111
SWIDTH 664 0
DWIDTH 24 0
BBX 22 20 1 0
BITMAP
00FC00
07FF80
0F87C0
1E01E0
380070
780038
700038
60001C
E0001C
E0001C
E0001C
E0001C
60001C
700038
780038
380070
1E01E0
0F87C0
07FF80
00FC00
ENDCHAR
STARTCHAR 0070
ENCODING 112
SWIDTH 692 0
DWIDTH 25 0
BBX 22 27 2 -7
BITMAP
E0FE00
E3FF80
EF87C0
FE01E0
F80070
F00038
F00038
E0001C
E0001C
E0001C
E0001C
E0001C
E0001C
F00038
F80038
F80070
FE01E0
EF87C0
E3FF80
E0FC00
E00000
E00000
E00000
E00000
E00000
E00000
E00000
ENDCHAR
STARTCHAR 0071
ENCODING 113
SWIDTH 692 0
DWIDTH 25 0
BBX 22 27 1 -7
BITMAP
00FC1C
07FF9C
0F87DC
1E01FC
38007C
70003C
70003C
60001C
E0001C
E0001C
E0001C
E0001C
60001C
70003C
70003C
38007C
1E01FC
0F87DC
07FF1C
00FC1C
00001C
00001C
00001C
00001C
00001C
00001C
00001C
ENDCHAR
STARTCHAR 0072
ENCODING 114
SWIDTH 304 0
DWIDTH 11 0
BBX 9 20 2 0
BITMAP
E380
EF80
FF80
FC00
F000
F000
E000
E000
E000
E000
E000
E000
E000
E000
E000
E000
E000
E000
E000
E000
ENDCHAR
STARTCHAR 0073
ENCODING 115
SWIDTH 387 0
DWIDTH 14 0
BBX 13 20 1 0
BITMAP
0F80
1FC0
3DE0
7070
7070
7000
7000
7C00
3F00
1FC0
03F0
00F0
0078
0038
E038
E038
7070
78F0
3FE0
0F80
ENDCHAR
STARTCHAR 0074
ENCODING 116
SWIDTH 332 0
DWIDTH 12 0
BBX 12 27 1 0
BITMAP
0E00
0E00
0E00
0E00
0E00
0E00
0E00
FFF0
FFF0
0E00
0E00
0E00
0E00
0E00
0E00
0E00
0E00
0E00
0E00
0E00
0E00
0E00
0E00
0E00
0E00
0E00
0E00
ENDCHAR
STARTCHAR 0075
ENCODING 117
SWIDTH 609 0
DWIDTH 22 0
BBX 18 20 2 0
BITMAP
E001C0
E001C0
E001C0
E001C0
E001C0
E001C0
E001C0
E001C0
E001C0
E001C0
E001C0
E001C0
E001C0
E001C0
7003C0
7003C0
7807C0
3F3DC0
1FF9C0
03F1C0
ENDCHAR
STARTCHAR 0076
ENCODING 118
SWIDTH 553 0
DWIDTH 20 0
BBX 19 20 0 0
BITMAP
C000E0
E000C0
6001C0
7001C0
700380
380380
380300
180700
1C0600
1C0E00
0E0E00
0E1C00
061C00
071800
033800
03B800
03F000
01F000
01E000
00E000
ENDCHAR
STARTCHAR 0077
ENCODING 119
SWIDTH 830 0
DWIDTH 30 0
BBX 29 20 0 0
BITMAP
E0000038
E0000030
60000070
70070070
30070060
380F00E0
380F80E0
180D80C0
1C1D81C0
1C1DC180
0C18C380
0E18C380
0638E300
0730E700
07306700
03707600
03E07E00
03E03C00
01E03C00
01C03C00
ENDCHAR
STARTCHAR 0078
ENCODING 120
SWIDTH 470 0
DWIDTH 17 0
BBX 16 20 0 0
BITMAP
E007
700E
381C
381C
1C38
0E70
0E70
07E0
03C0
03C0
03C0
07E0
07E0
0E70
0C30
1C38
381C
301C
700E
E007
ENDCHAR
STARTCHAR 0079
ENCODING 121
SWIDTH 526 0
DWIDTH 19 0
BBX 18 27 1 -7
BITMAP
E001C0
600180
700380
700380
300300
380700
180600
1C0E00
1C0C00
0C1C00
0E1C00
0E1800
063800
073000
037000
03F000
03E000
01E000
01C000
01C000
018000
018000
038000
030000
070000
060000
0E0000
ENDCHAR
STARTCHAR 007A
ENCODING 122
SWIDTH 415 0
DWIDTH 15 0
BBX 15 20 0 0
BITMAP
FFFC
FFFC
001C
0038
0038
0070
00E0
01E0
01C0
0380
0700
0700
0E00
1C00
3C00
3800
7000
E000
FFFE
FFFE
ENDCHAR
STARTCHAR 007B
ENCODING 123
SWIDTH 360 0
DWIDTH 13 0
BBX 10 34 2 -7
BITMAP
03C0
07C0
0F00
0E00
0E00
0E00
0E00
0E00
0E00
0E00
0E00
0E00
0E00
0E00
1C00
3C00
F000
F000
7C00
1C00
0E00
0E00
0E00
0E00
0E00
0E00
0E00
0E00
0E00
0E00
0E00
0F00
07C0
03C0
ENDCHAR
STARTCHAR 007C
ENCODING 124
SWIDTH 664 0
DWIDTH 24 0
BBX 3 37 11 -8
BITMAP
E0
E0
E0
E0
E0
E0
E0
E0
E0
E0
E0
E0
E0
E0
E0
E0
E0
E0
E0
E0
E0
E0
E0
E0
E0
E0
E0
E0
E0
E0
E0
E0
E0
E0
E0
E0
E0
ENDCHAR
STARTCHAR 007D
ENCODING 125
SWIDTH 360 0
DWIDTH 13 0
BBX 9 34 1 -7
BITMAP
F000
F800
3C00
1C00
1C00
1C00
1C00
1C00
1C00
1C00
1C00
1C00
1C00
1C00
0E00
0F00
0780
0780
0F00
0E00
1C00
1C00
1C00
1C00
1C00
1C00
1C00
1C00
1C00
1C00
1C00
3C00
F800
F000
ENDCHAR
STARTCHAR 007E
ENCODING 126
SWIDTH 609 0
DWIDTH 22 0
BBX 17 4 3 7
BITMAP
3F0100
7FC380
E1FF00
407E00
ENDCHAR
STARTCHAR 00A0
ENCODING 160
SWIDTH 276 0
DWIDTH 10 0
BBX 0 0 0 0
BITMAP
ENDCHAR
STARTCHAR 00A3
ENCODING 163
SWIDTH 553 0
DWIDTH 20 0
BBX 20 27 0 0
BITMAP
01F800
07FE00
0F9F00
1E0380
3801C0
3801C0
7000C0
7000E0
700000
700000
700000
380000
FFFF00
FFFF00
0F0000
078000
03C000
01C070
00E070
00E070
00E070
00E070
00E0E0
01C1E0
01C7C0
7FFF80
7FFE00
ENDCHAR
STARTCHAR 00A4
ENCODING 164
SWIDTH 553 0
DWIDTH 20 0
BBX 21 19 0 2
BITMAP
600030
F00078
79FCF0
1FFFC0
0F0780
0E0380
1C01C0
1800E0
3800E0
3800E0
3800E0
1800C0
1C01C0
0E0380
0F0780
3FFFE0
79F8F0
F00078
400010
ENDCHAR
STARTCHAR 00A6
ENCODING 166
SWIDTH 664 0
DWIDTH 24 0
BBX 3 31 11 -5
BITMAP
E0
E0
E0
E0
E0
E0
E0
E0
E0
E0
E0
E0
E0
00
00
00
00
00
E0
E0
E0
E0
E0
E0
E0
E0
E0
E0
E0
E0
E0
ENDCHAR
STARTCHAR 00A7
ENCODING 167
SWIDTH 609 0
DWIDTH 22 0
BBX 17 32 3 -6
BITMAP
03F000
0FF800
1F7C00
1C1E00
380E00
380000
380000
380000
1C0000
0F0000
3FC000
73F000
60FC00
E01E00
E00F00
E00780
F00380
780380
3E0380
0F8700
03EF00
00FE00
003C00
001E00
000F00
700700
700700
700700
380E00
1C1E00
1FFC00
07F000
ENDCHAR
STARTCHAR 00A8
ENCODING 168
SWIDTH 360 0
DWIDTH 13 0
BBX 8 5 3 23
BITMAP
E7
E7
E7
E7
E7
ENDCHAR
STARTCHAR 00A9
ENCODING 169
SWIDTH 747 0
DWIDTH 27 0
BBX 28 27 0 0
BITMAP
003FC000
00FFF800
03C03C00
07000F00
0E000780
1C1F8380
387FE1C0
30F070E0
71E030E0
71C018E0
E3801870
E3800070
E3800070
E3800070
E3800070
E3800070
E3801870
71C018E0
71E030E0
38F8E0E0
387FC1C0
1C1F8380
0E000700
07000E00
03E03C00
00FFF000
003FC000
ENDCHAR
STARTCHAR 00AB
ENCODING 171
SWIDTH 415 0
DWIDTH 15 0
BBX 13 15 1 3
BITMAP
0830
1C38
1C70
3870
38E0
70E0
61C0
E180
71C0
70E0
38E0
3870
1C70
1C38
0830
ENDCHAR
STARTCHAR 00AC
ENCODING 172
SWIDTH 609 0
DWIDTH 22 0
BBX 19 10 2 4
BITMAP
FFFFE0
FFFFE0
0000E0
0000E0
0000E0
0000E0
0000E0
0000E0
0000E0
0000E0
ENDCHAR
STARTCHAR 00AD
ENCODING 173
SWIDTH 332 0
DWIDTH 12 0
BBX 10 2 1 10
BITMAP
FFC0
FFC0
ENDCHAR
STARTCHAR 00AE
ENCODING 174
SWIDTH 747 0
DWIDTH 27 0
BBX 28 27 0 0
BITMAP
001FC000
00FFF800
03C03C00
07000F00
0E000780
1CFFC380
38FFF1C0
30E070E0
70E038E0
70E038E0
E0E03870
E0E03870
E0E0F070
E0FFC070
E0FFE070
E0E07070
E0E03870
70E03860
70E038E0
38E038E0
38E039C0
1C000380
0E000700
07800E00
03E03C00
00FFF800
003FC000
ENDCHAR
STARTCHAR 00B0
ENCODING 176
SWIDTH 387 0
DWIDTH 14 0
BBX 11 11 2 16
BITMAP
1F00
3F80
71C0
C0E0
C060
C060
C060
E0C0
71C0
3F80
1F00
ENDCHAR
STARTCHAR 00B1
ENCODING 177
SWIDTH 609 0
DWIDTH 22 0
BBX 19 20 2 -1
BITMAP
00E000
00E000
00E000
00E000
00E000
00E000
00E000
FFFFE0
FFFFE0
00E000
00E000
00E000
00E000
00E000
00E000
00E000
000000
000000
FFFFE0
FFFFE0
ENDCHAR
STARTCHAR 00B4
ENCODING 180
SWIDTH 387 0
DWIDTH 14 0
BBX 8 6 3 24
BITMAP
02
0F
3E
7C
F0
40
ENDCHAR
STARTCHAR 00B5
ENCODING 181
SWIDTH 609 0
DWIDTH 22 0
BBX 16 26 3 -7
BITMAP
E007
E007
E007
E007
E007
E007
E007
E007
E007
E007
E007
E007
E007
E007
F007
F00F
F81F
FE7F
EFF7
E7C7
E000
E000
E000
E000
E000
E000
ENDCHAR
STARTCHAR 00B6
ENCODING 182
SWIDTH 553 0
DWIDTH 20 0
BBX 19 31 1 -5
BITMAP
07FFE0
1FFFE0
3FE380
7FE380
7FE380
FFE380
FFE380
FFE380
FFE380
FFE380
7FE380
7FE380
3FE380
0FE380
00E380
00E380
00E380
00E380
00E380
00E380
00E380
00E380
00E380
00E380
00E380
00E380
00E380
00E380
00E380
00E380
00E380
ENDCHAR
STARTCHAR 00B7
ENCODING 183
SWIDTH 276 0
DWIDTH 10 0
BBX 3 5 4 7
BITMAP
E0
E0
E0
E0
E0
ENDCHAR
STARTCHAR 00B8
ENCODING 184
SWIDTH 332 0
DWIDTH 12 0
BBX 6 8 3 -9
BITMAP
20
60
78
4C
04
C4
CC
78
ENDCHAR
STARTCHAR 00BB
ENCODING 187
SWIDTH 415 0
DWIDTH 15 0
BBX 13 15 1 3
BITMAP
4080
E1C0
71C0
70E0
38E0
3870
1C30
0C38
1C70
3870
38E0
70E0
71C0
E1C0
4080
ENDCHAR
STARTCHAR 00C1
ENCODING 193
SWIDTH 747 0
DWIDTH 27 0
BBX 26 34 0 1
BITMAP
00038000
000F8000
001F0000
007C0000
00300000
00000000
00000000
001E0000
001E0000
003F0000
003F0000
00330000
00738000
00738000
00E1C000
00E1C000
01C0E000
01C0E000
01C0E000
03807000
03807000
07003800
07003800
0FFFFC00
0FFFFC00
0C001C00
1C000E00
1C000E00
38000700
38000700
70000380
70000380
60000380
E00001C0
ENDCHAR
STARTCHAR 00C2
ENCODING 194
SWIDTH 747 0
DWIDTH 27 0
BBX 26 34 0 0
BITMAP
001E0000
003F0000
007F8000
00E1C000
01C0E000
00000000
00000000
001E0000
001E0000
003F0000
003F0000
00330000
00738000
00738000
00E1C000
00E1C000
01C0E000
01C0E000
01C0E000
03807000
03807000
07003800
07003800
0FFFFC00
0FFFFC00
0C001C00
1C000E00
1C000E00
38000700
38000700
70000380
70000380
60000380
E00001C0
ENDCHAR
STARTCHAR 00C4
ENCODING 196
SWIDTH 747 0
DWIDTH 27 0
BBX 27 34 0 0
BITMAP
0071C000
0071C000
0071C000
0071C000
0071C000
00000000
00000000
000E0000
001F0000
001F0000
003B8000
003B8000
0071C000
0071C000
0071C000
00E0E000
00E0E000
01C07000
01C07000
03803800
03803800
03003800
07001C00
07FFFC00
0FFFFE00
0E000E00
1C000700
1C000700
18000700
38000380
38000380
700001C0
700001C0
E00000E0
ENDCHAR
STARTCHAR 00C7
ENCODING 199
SWIDTH 803 0
DWIDTH 29 0
BBX 26 35 1 -9
BITMAP
001FC000
00FFF800
03FDFC00
07C01F00
0F000780
1E000380
3C0001C0
38000000
70000000
70000000
60000000
E0000000
E0000000
E0000000
E0000000
E0000000
70000000
70000000
70000000
38000000
3C0001C0
1E000380
0F000700
07C01E00
03FCFC00
00FFF800
001FC000
00040000
000C0000
000F0000
00098000
00008000
00188000
00198000
000F0000
ENDCHAR
STARTCHAR 00C9
ENCODING 201
SWIDTH 526 0
DWIDTH 19 0
BBX 15 35 2 0
BITMAP
0020
0060
01F0
07C0
0F00
0E00
0000
0000
FFFE
FFFE
E000
E000
E000
E000
E000
E000
E000
E000
E000
E000
FFFE
FFFE
E000
E000
E000
E000
E000
E000
E000
E000
E000
E000
E000
FFFE
FFFE
ENDCHAR
STARTCHAR 00CB
ENCODING 203
SWIDTH 526 0
DWIDTH 19 0
BBX 15 34 2 0
BITMAP
0E70
0E70
0E70
0E70
0E70
0000
0000
FFFE
FFFE
E000
E000
E000
E000
E000
E000
E000
E000
E000
E000
FFFE
FFFE
E000
E000
E000
E000
E000
E000
E000
E000
E000
E000
E000
FFFE
FFFE
ENDCHAR
STARTCHAR 00CD
ENCODING 205
SWIDTH 221 0
DWIDTH 8 0
BBX 8 34 2 1
BITMAP
07
1F
7E
F8
E0
00
00
70
70
70
70
70
70
70
70
70
70
70
70
70
70
70
70
70
70
70
70
70
70
70
70
70
70
70
ENDCHAR
STARTCHAR 00CE
ENCODING 206
SWIDTH 221 0
DWIDTH 8 0
BBX 12 34 -2 0
BITMAP
0700
0F80
1DC0
38E0
F070
0000
0000
0700
0700
0700
0700
0700
0700
0700
0700
0700
0700
0700
0700
0700
0700
0700
0700
0700
0700
0700
0700
0700
0700
0700
0700
0700
0700
0700
ENDCHAR
STARTCHAR 00D3
ENCODING 211
SWIDTH 858 0
DWIDTH 31 0
BBX 29 34 1 1
BITMAP
00003000
0000F000
0003F000
0007C000
000F0000
00040000
00000000
001FE000
00FFF800
03FDFE00
07C01F00
0F000780
1E0003C0
3C0001E0
380000F0
70000070
70000070
70000038
E0000038
E0000038
E0000038
E0000038
E0000038
F0000038
70000070
70000070
380000F0
3C0000E0
1E0001C0
0F000780
07C00F00
03FDFE00
00FFF800
001FC000
ENDCHAR
STARTCHAR 00D4
ENCODING 212
SWIDTH 858 0
DWIDTH 31 0
BBX 29 34 1 0
BITMAP
00070000
000F8000
001DC000
0038F000
00707800
00000000
00000000
001FE000
00FFF800
03FDFE00
07C01F00
0F000780
1E0003C0
3C0001E0
380000F0
70000070
70000070
70000038
E0000038
E0000038
E0000038
E0000038
E0000038
F0000038
70000070
70000070
380000F0
3C0000E0
1E0001C0
0F000780
07C00F00
03FDFE00
00FFF800
001FC000
ENDCHAR
STARTCHAR 00D5
ENCODING 213
SWIDTH 858 0
DWIDTH 31 0
BBX 29 33 1 1
BITMAP
007E1000
007FF000
0043F000
00000000
00000000
00000000
001FE000
00FFF800
03FDFE00
07C01F00
0F000780
1E0003C0
3C0001E0
380000F0
70000070
70000070
70000038
E0000038
E0000038
E0000038
E0000038
E0000038
F0000038
70000070
70000070
380000F0
3C0000E0
1E0001C0
0F000780
07C00F00
03FDFE00
00FFF800
001FC000
ENDCHAR
STARTCHAR 00D6
ENCODING 214
SWIDTH 858 0
DWIDTH 31 0
BBX 29 34 1 0
BITMAP
001CE000
001CE000
001CE000
001CE000
001CE000
00000000
00000000
001FE000
00FFF800
01FDFE00
07C00F00
0F000780
1E0001C0
3C0000E0
380000F0
70000070
70000070
70000038
E0000038
E0000038
E0000038
E0000038
E0000038
70000038
70000070
70000070
380000F0
3C0000E0
1E0001C0
0F000780
07C00F00
03FDFE00
00FFF800
001FE000
ENDCHAR
STARTCHAR 00D7
ENCODING 215
SWIDTH 609 0
DWIDTH 22 0
BBX 17 17 3 1
BITMAP
400100
E00380
700700
380E00
1C1C00
0E3800
077000
03E000
01C000
03E000
077000
0E3800
1C1C00
380E00
700700
E00380
400100
ENDCHAR
STARTCHAR 00DA
ENCODING 218
SWIDTH 664 0
DWIDTH 24 0
BBX 18 34 3 1
BITMAP
001800
007C00
01F000
03C000
018000
000000
000000
E001C0
E001C0
E001C0
E001C0
E001C0
E001C0
E001C0
E001C0
E001C0
E001C0
E001C0
E001C0
E001C0
E001C0
E001C0
E001C0
E001C0
E001C0
E001C0
E001C0
E001C0
700380
780380
3C0700
1FBE00
0FFC00
03F000
ENDCHAR
STARTCHAR 00DC
ENCODING 220
SWIDTH 664 0
DWIDTH 24 0
BBX 18 34 3 0
BITMAP
073800
073800
073800
073800
073800
000000
000000
E001C0
E001C0
E001C0
E001C0
E001C0
E001C0
E001C0
E001C0
E001C0
E001C0
E001C0
E001C0
E001C0
E001C0
E001C0
E001C0
E001C0
E001C0
E001C0
E001C0
E001C0
700380
780380
3C0700
1FBE00
0FFC00
03F000
ENDCHAR
STARTCHAR 00DD
ENCODING 221
SWIDTH 581 0
DWIDTH 21 0
BBX 21 35 0 0
BITMAP
000200
000600
001F00
007C00
01F000
00C000
000000
000000
E00038
700038
700070
380070
3800E0
1C00E0
1C01C0
0E0180
0E0380
070300
070700
038E00
038E00
01DC00
01DC00
00F800
00F800
007000
007000
007000
007000
007000
007000
007000
007000
007000
007000
ENDCHAR
STARTCHAR 00DF
ENCODING 223
SWIDTH 553 0
DWIDTH 20 0
BBX 17 27 2 0
BITMAP
07E000
1FF000
3C7800
781C00
701E00
E00E00
E00E00
E00E00
E00E00
E00E00
E01C00
E07800
E3F000
E3FC00
E03E00
E00F00
E00700
E00380
E00380
E00380
F80380
F80380
FC0780
FC0700
EF3E00
E7FC00
E1F000
ENDCHAR
STARTCHAR 00E1
ENCODING 225
SWIDTH 692 0
DWIDTH 25 0
BBX 22 28 1 1
BITMAP
000600
001F00
003E00
00F800
00E000
008000
000000
000000
00FC1C
07FF9C
0F87DC
1E01FC
38007C
70003C
70003C
60001C
E0001C
E0001C
E0001C
E0001C
60001C
70003C
70003C
38007C
1E01FC
0F87DC
07FF1C
00FC1C
ENDCHAR
STARTCHAR 00E2
ENCODING 226
SWIDTH 692 0
DWIDTH 25 0
BBX 22 28 1 0
BITMAP
003800
007C00
00EE00
01C700
078380
000000
000000
000000
00FC1C
07FF9C
0F87DC
1E01FC
38007C
70003C
70003C
60001C
E0001C
E0001C
E0001C
E0001C
60001C
70003C
70003C
38007C
1E01FC
0F87DC
07FF1C
00FC1C
ENDCHAR
STARTCHAR 00E4
ENCODING 228
SWIDTH 692 0
DWIDTH 25 0
BBX 22 28 1 0
BITMAP
01C700
01C700
01C700
01C700
01C700
000000
000000
000000
00FE1C
07FF9C
0F87DC
1E01FC
38007C
70003C
70003C
60001C
E0001C
E0001C
E0001C
E0001C
60001C
70003C
78003C
38007C
1E00FC
0F87DC
07FF9C
00FC1C
ENDCHAR
STARTCHAR 00E7
ENCODING 231
SWIDTH 636 0
DWIDTH 23 0
BBX 20 28 1 -9
BITMAP
00FC00
03FF80
0F87C0
1E01E0
3800F0
780070
700000
600000
E00000
E00000
E00000
E00000
E00000
700000
780030
380070
1E00E0
0F87C0
07FF80
01FE00
002000
006000
007800
004C00
000400
00C400
00CC00
007800
ENDCHAR
STARTCHAR 00E9
ENCODING 233
SWIDTH 636 0
DWIDTH 23 0
BBX 21 28 1 1
BITMAP
000400
001E00
007C00
01F000
01C000
008000
000000
000000
01FC00
07FF00
0F8F80
1C01C0
3800E0
700070
700070
600038
E00038
FFFFF8
FFFFF8
E00000
E00000
700070
700070
3800E0
1C01C0
0F8F80
07FF00
01FC00
ENDCHAR
STARTCHAR 00EB
ENCODING 235
SWIDTH 636 0
DWIDTH 23 0
BBX 21 28 1 0
BITMAP
01CE00
01CE00
01CE00
01CE00
01CE00
000000
000000
000000
00FC00
07FF00
0FCFC0
1E01E0
3800E0
700070
700030
600038
E00038
FFFFF8
FFFFF8
E00000
E00000
700030
700070
3800E0
1E01E0
0F8FC0
07FF00
00FC00
ENDCHAR
STARTCHAR 00ED
ENCODING 237
SWIDTH 193 0
DWIDTH 7 0
BBX 8 29 1 0
BITMAP
01
07
1F
7E
F8
60
00
00
00
70
70
70
70
70
70
70
70
70
70
70
70
70
70
70
70
70
70
70
70
ENDCHAR
STARTCHAR 00EE
ENCODING 238
SWIDTH 193 0
DWIDTH 7 0
BBX 12 28 -2 0
BITMAP
0E00
1F80
3BC0
71E0
E0F0
0000
0000
0000
0E00
0E00
0E00
0E00
0E00
0E00
0E00
0E00
0E00
0E00
0E00
0E00
0E00
0E00
0E00
0E00
0E00
0E00
0E00
0E00
ENDCHAR
STARTCHAR 00F3
ENCODING 243
SWIDTH 664 0
DWIDTH 24 0
BBX 22 28 1 1
BITMAP
000300
000F00
003F00
007C00
00F000
004000
000000
000000
00FC00
07FF80
0F87C0
1E01E0
380070
780038
700038
60001C
E0001C
E0001C
E0001C
E0001C
60001C
700038
780038
380070
1E01E0
0F87C0
07FF80
00FC00
ENDCHAR
STARTCHAR 00F4
ENCODING 244
SWIDTH 664 0
DWIDTH 24 0
BBX 22 28 1 0
BITMAP
007800
00FC00
01EE00
038700
070380
000000
000000
000000
00FC00
07FF80
0F87C0
1E01E0
380070
780038
700038
60001C
E0001C
E0001C
E0001C
E0001C
60001C
700038
780038
380070
1E01E0
0F87C0
07FF80
00FC00
ENDCHAR
STARTCHAR 00F5
ENCODING 245
SWIDTH 664 0
DWIDTH 24 0
BBX 22 27 1 0
BITMAP
03E100
07FF80
063F80
000000
000000
000000
000000
00FC00
07FF80
0F87C0
1E01E0
380070
780038
700038
60001C
E0001C
E0001C
E0001C
E0001C
60001C
700038
780038
380070
1E01E0
0F87C0
07FF80
00FC00
ENDCHAR
STARTCHAR 00F6
ENCODING 246
SWIDTH 664 0
DWIDTH 24 0
BBX 22 28 1 0
BITMAP
01CE00
01CE00
01CE00
01CE00
01CE00
000000
000000
000000
00FC00
07FF80
0F87C0
1E01E0
380070
780038
700038
60001C
E0001C
E0001C
E0001C
E0001C
60001C
700038
780038
380070
1E01E0
0F87C0
07FF80
00FC00
ENDCHAR
STARTCHAR 00F7
ENCODING 247
SWIDTH 609 0
DWIDTH 22 0
BBX 19 19 2 0
BITMAP
00E000
00E000
00E000
00E000
00E000
000000
000000
000000
000000
FFFFE0
FFFFE0
000000
000000
000000
00E000
00E000
00E000
00E000
00E000
ENDCHAR
STARTCHAR 00FA
ENCODING 250
SWIDTH 609 0
DWIDTH 22 0
BBX 18 28 2 1
BITMAP
001C00
007C00
01F000
03C000
018000
000000
000000
000000
E001C0
E001C0
E001C0
E001C0
E001C0
E001C0
E001C0
E001C0
E001C0
E001C0
E001C0
E001C0
E001C0
E001C0
7003C0
7003C0
7807C0
3F3DC0
1FF9C0
03F1C0
ENDCHAR
STARTCHAR 00FC
ENCODING 252
SWIDTH 609 0
DWIDTH 22 0
BBX 18 28 2 0
BITMAP
073800
073800
073800
073800
073800
000000
000000
000000
E001C0
E001C0
E001C0
E001C0
E001C0
E001C0
E001C0
E001C0
E001C0
E001C0
E001C0
E001C0
E001C0
E001C0
7003C0
7003C0
7807C0
3F3DC0
1FF9C0
03F1C0
ENDCHAR
STARTCHAR 00FD
ENCODING 253
SWIDTH 526 0
DWIDTH 19 0
BBX 18 36 1 -7
BITMAP
000800
001C00
007C00
01F000
03C000
038000
000000
000000
000000
E001C0
600180
700380
700380
300300
380700
180600
1C0E00
1C0C00
0C1C00
0E1C00
0E1800
063800
073000
037000
03F000
03E000
01E000
01C000
01C000
018000
018000
038000
030000
070000
060000
0E0000
ENDCHAR
STARTCHAR 0100
ENCODING 256
SWIDTH 747 0
DWIDTH 27 0
BBX 26 32 0 1
BITMAP
01FFE000
01FFE000
00000000
00000000
00000000
001E0000
001E0000
003F0000
003F0000
00330000
00738000
00738000
00E1C000
00E1C000
01C0E000
01C0E000
01C0E000
03807000
03807000
07003800
07003800
0FFFFC00
0FFFFC00
0C001C00
1C000E00
1C000E00
38000700
38000700
70000380
70000380
60000380
E00001C0
ENDCHAR
STARTCHAR 0101
ENCODING 257
SWIDTH 692 0
DWIDTH 25 0
BBX 22 27 1 0
BITMAP
07FFC0
07FFC0
000000
000000
000000
000000
000000
00FC1C
07FF9C
0F87DC
1E01FC
38007C
70003C
70003C
60001C
E0001C
E0001C
E0001C
E0001C
60001C
70003C
70003C
38007C
1E01FC
0F87DC
07FF1C
00FC1C
ENDCHAR
STARTCHAR 0102
ENCODING 258
SWIDTH 747 0
DWIDTH 27 0
BBX 26 34 0 0
BITMAP
01806000
01E0E000
00FFC000
003F0000
00000000
00000000
00000000
001E0000
001E0000
003F0000
003F0000
00330000
00738000
00738000
00E1C000
00E1C000
01C0E000
01C0E000
01C0E000
03807000
03807000
07003800
07003800
0FFFFC00
0FFFFC00
0C001C00
1C000E00
1C000E00
38000700
38000700
70000380
70000380
60000380
E00001C0
ENDCHAR
STARTCHAR 0103
ENCODING 259
SWIDTH 692 0
DWIDTH 25 0
BBX 22 27 1 0
BITMAP
070380
03FF80
00FE00
000000
000000
000000
000000
00FC1C
07FF9C
0F87DC
1E01FC
38007C
70003C
70003C
60001C
E0001C
E0001C
E0001C
E0001C
60001C
70003C
70003C
38007C
1E01FC
0F87DC
07FF1C
00FC1C
ENDCHAR
STARTCHAR 0104
ENCODING 260
SWIDTH 747 0
DWIDTH 27 0
BBX 27 34 0 -7
BITMAP
001E0000
001E0000
003F0000
003F0000
00330000
00738000
00738000
00E1C000
00E1C000
01C0E000
01C0E000
01C0E000
03807000
03807000
07003800
07003800
0FFFFC00
0FFFFC00
0E001C00
1C000E00
1C000E00
38000700
38000700
30000380
70000380
60000380
E00001C0
00000180
00000300
00000600
00000600
00000600
000003E0
000001E0
ENDCHAR
STARTCHAR 0105
ENCODING 261
SWIDTH 692 0
DWIDTH 25 0
BBX 22 27 1 -7
BITMAP
00FC1C
07FF9C
0F87DC
1E01FC
38007C
70007C
70003C
60001C
E0001C
E0001C
E0001C
E0001C
60001C
70003C
70003C
38007C
1E01FC
0F87DC
07FF1C
01FC1C
000030
000060
0000C0
0000C0
0000C0
00007C
00003C
ENDCHAR
STARTCHAR 0106
ENCODING 262
SWIDTH 803 0
DWIDTH 29 0
BBX 26 34 1 1
BITMAP
00002000
0000F000
0003E000
000F8000
000E0000
00040000
00000000
001FC000
00FFF800
03FDFC00
07C01F00
0F000780
1E0003C0
3C0001C0
38000000
70000000
70000000
60000000
E0000000
E0000000
E0000000
E0000000
E0000000
70000000
70000000
70000000
38000000
3C0001C0
1E000380
0F000780
07C01F00
03FDFC00
00FFF800
003FC000
ENDCHAR
STARTCHAR 0107
ENCODING 263
SWIDTH 636 0
DWIDTH 23 0
BBX 21 28 1 1
BITMAP
000400
001E00
007C00
01F000
01C000
008000
000000
000000
00FC00
07FF80
0F87C0
1E01E0
380070
700038
700000
600000
E00000
E00000
E00000
E00000
600000
700000
780038
380070
1E00E0
0F87C0
07FF80
00FC00
ENDCHAR
STARTCHAR 010C
ENCODING 268
SWIDTH 803 0
DWIDTH 29 0
BBX 26 34 1 0
BITMAP
00707800
0038F000
001DE000
000FC000
00070000
00000000
00000000
001FC000
00FFF800
03FDFC00
07C01F00
0F000780
1E0003C0
3C0001C0
38000000
70000000
70000000
60000000
E0000000
E0000000
E0000000
E0000000
E0000000
70000000
70000000
70000000
38000000
3C0001C0
1E000380
0F000780
07C01F00
03FDFC00
00FFF800
003FC000
ENDCHAR
STARTCHAR 010D
ENCODING 269
SWIDTH 636 0
DWIDTH 23 0
BBX 21 28 1 0
BITMAP
070700
038E00
01DC00
00F800
007000
000000
000000
000000
00FC00
07FF80
0F87C0
1E01E0
380070
700038
700000
600000
E00000
E00000
E00000
E00000
600000
700000
780038
380070
1E00E0
0F87C0
07FF80
00FC00
ENDCHAR
STARTCHAR 010E
ENCODING 270
SWIDTH 747 0
DWIDTH 27 0
BBX 22 34 3 0
BITMAP
1C1C00
0E3800
077000
03E000
01C000
000000
000000
FFF000
FFFE00
E1FF80
E007C0
E001E0
E000F0
E00070
E00078
E00038
E00038
E0001C
E0001C
E0001C
E0001C
E0001C
E0001C
E0001C
E00018
E00038
E00038
E00070
E000E0
E001E0
E007C0
E1FF80
FFFE00
FFF000
ENDCHAR
STARTCHAR 010F
ENCODING 271
SWIDTH 747 0
DWIDTH 27 0
BBX 28 27 1 0
BITMAP
00001C70
00001C60
00001C60
00001CE0
00001CC0
00001DC0
00001C00
00FC1C00
07FF9C00
0F87DC00
1E01FC00
38007C00
70003C00
70003C00
60001C00
E0001C00
E0001C00
E0001C00
E0001C00
60001C00
70003C00
70003C00
38007C00
1E01FC00
0F87DC00
07FF1C00
00FC1C00
ENDCHAR
STARTCHAR 0110
ENCODING 272
SWIDTH 803 0
DWIDTH 29 0
BBX 26 27 1 0
BITMAP
1FFF0000
1FFFC000
1C3FF000
1C007C00
1C003E00
1C000E00
1C000700
1C000780
1C000380
1C000380
1C0001C0
1C0001C0
FFF801C0
FFF801C0
1C0001C0
1C0001C0
1C0001C0
1C000380
1C000380
1C000700
1C000700
1C000E00
1C001C00
1C007C00
1C1FF000
1FFFC000
1FFF0000
ENDCHAR
STARTCHAR 0111
ENCODING 273
SWIDTH 692 0
DWIDTH 25 0
BBX 24 27 1 0
BITMAP
00001C
00001C
00001C
0003FF
0003FF
00001C
00001C
00FC1C
07FF9C
0F87DC
1E01FC
38007C
70003C
70003C
60001C
E0001C
E0001C
E0001C
E0001C
60001C
70003C
70003C
38007C
1E01FC
0F87DC
07FF1C
00FC1C
ENDCHAR
STARTCHAR 0112
ENCODING 274
SWIDTH 526 0
DWIDTH 19 0
BBX 15 32 2 1
BITMAP
7FFC
7FFC
0000
0000
0000
FFFE
FFFE
E000
E000
E000
E000
E000
E000
E000
E000
E000
E000
FFFE
FFFE
E000
E000
E000
E000
E000
E000
E000
E000
E000
E000
E000
FFFE
FFFE
ENDCHAR
STARTCHAR 0113
ENCODING 275
SWIDTH 636 0
DWIDTH 23 0
BBX 21 27 1 0
BITMAP
0FFF80
0FFF80
000000
000000
000000
000000
000000
01FC00
07FF00
0F8F80
1C01C0
3800E0
700070
700070
600038
E00038
FFFFF8
FFFFF8
E00000
E00000
700070
700070
3800E0
1C01C0
0F8F80
07FF00
01FC00
ENDCHAR
STARTCHAR 0116
ENCODING 278
SWIDTH 526 0
DWIDTH 19 0
BBX 15 34 2 0
BITMAP
0380
0380
0380
0380
0380
0000
0000
FFFE
FFFE
E000
E000
E000
E000
E000
E000
E000
E000
E000
E000
FFFE
FFFE
E000
E000
E000
E000
E000
E000
E000
E000
E000
E000
E000
FFFE
FFFE
ENDCHAR
STARTCHAR 0117
ENCODING 279
SWIDTH 636 0
DWIDTH 23 0
BBX 21 28 1 0
BITMAP
007000
007000
007000
007000
007000
000000
000000
000000
01FC00
07FF00
0F8F80
1C01C0
3800E0
700070
700030
600038
E00038
FFFFF8
FFFFF8
E00000
E00000
700030
700070
3800E0
1C01C0
0F8F80
07FF00
01FC00
ENDCHAR
STARTCHAR 0118
ENCODING 280
SWIDTH 526 0
DWIDTH 19 0
BBX 15 34 2 -7
BITMAP
FFFE
FFFE
E000
E000
E000
E000
E000
E000
E000
E000
E000
E000
FFFC
FFFC
E000
E000
E000
E000
E000
E000
E000
E000
E000
E000
E000
FFFE
FFFE
0018
0030
0060
0060
0060
003E
001E
ENDCHAR
STARTCHAR 0119
ENCODING 281
SWIDTH 636 0
DWIDTH 23 0
BBX 21 27 1 -7
BITMAP
00FC00
07FF00
0FCFC0
1E01E0
3800E0
700070
700038
600038
E00018
FFFFF8
FFFFF8
E00000
E00000
700038
700070
380070
1E01E0
0F8FC0
07FF80
00FE00
003800
003000
006000
006000
006000
003E00
001E00
ENDCHAR
STARTCHAR 011A
ENCODING 282
SWIDTH 526 0
DWIDTH 19 0
BBX 15 34 2 0
BITMAP
7838
3C70
1EE0
0FC0
0380
0000
0000
FFFE
FFFE
E000
E000
E000
E000
E000
E000
E000
E000
E000
E000
FFFE
FFFE
E000
E000
E000
E000
E000
E000
E000
E000
E000
E000
E000
FFFE
FFFE
ENDCHAR
STARTCHAR 011B
ENCODING 283
SWIDTH 636 0
DWIDTH 23 0
BBX 21 28 1 0
BITMAP
0F0700
038E00
01DC00
00F800
007000
000000
000000
000000
01FC00
07FF00
0F8F80
1C01C0
3800E0
700070
700070
600038
E00038
FFFFF8
FFFFF8
E00000
E00000
700070
700070
3800E0
1C01C0
0F8F80
07FF00
01FC00
ENDCHAR
STARTCHAR 0122
ENCODING 290
SWIDTH 858 0
DWIDTH 31 0
BBX 29 35 1 -8
BITMAP
001FE000
00FFF800
03FDFE00
07C01F00
0F000780
1E0003C0
3C0001E0
380000E0
70000000
70000000
70000000
E0000000
E0000000
E0000000
E0000000
E01FFFF8
E01FFFF8
70000070
70000070
380000E0
3C0000E0
1E0001C0
0F000780
07C00F00
03FDFE00
00FFF800
001FC000
00000000
00000000
00030000
00060000
00060000
000E0000
000C0000
001C0000
ENDCHAR
STARTCHAR 0123
ENCODING 291
SWIDTH 664 0
DWIDTH 24 0
BBX 21 35 1 -7
BITMAP
001800
001800
003800
003000
007000
006000
000000
000000
00FC38
07FF38
0F8FB8
1C01F8
3800F8
700078
700078
600038
E00038
E00038
E00038
E00038
E00038
700078
780078
3800F8
1E01F8
0F8FB8
07FF38
01FC38
700038
380070
3C0070
1E01E0
0F87C0
07FF80
00FE00
ENDCHAR
STARTCHAR 012A
ENCODING 298
SWIDTH 221 0
DWIDTH 8 0
BBX 11 32 -1 1
BITMAP
FFE0
FFE0
0000
0000
0000
0E00
0E00
0E00
0E00
0E00
0E00
0E00
0E00
0E00
0E00
0E00
0E00
0E00
0E00
0E00
0E00
0E00
0E00
0E00
0E00
0E00
0E00
0E00
0E00
0E00
0E00
0E00
ENDCHAR
STARTCHAR 012B
ENCODING 299
SWIDTH 193 0
DWIDTH 7 0
BBX 11 27 -2 0
BITMAP
FFE0
FFE0
0000
0000
0000
0000
0000
0E00
0E00
0E00
0E00
0E00
0E00
0E00
0E00
0E00
0E00
0E00
0E00
0E00
0E00
0E00
0E00
0E00
0E00
0E00
0E00
ENDCHAR
STARTCHAR 012E
ENCODING 302
SWIDTH 221 0
DWIDTH 8 0
BBX 6 34 1 -7
BITMAP
38
38
38
38
38
38
38
38
38
38
38
38
38
38
38
38
38
38
38
38
38
38
38
38
38
38
38
30
60
C0
C0
C0
7C
3C
ENDCHAR
STARTCHAR 012F
ENCODING 303
SWIDTH 193 0
DWIDTH 7 0
BBX 6 34 0 -7
BITMAP
38
38
38
38
38
00
00
38
38
38
38
38
38
38
38
38
38
38
38
38
38
38
38
38
38
38
38
30
60
C0
C0
C0
7C
3C
ENDCHAR
STARTCHAR 0136
ENCODING 310
SWIDTH 581 0
DWIDTH 21 0
BBX 18 34 3 -7
BITMAP
E001C0
E00380
E00780
E00F00
E00E00
E01C00
E03800
E07800
E0F000
E0E000
E1C000
E38000
E78000
E70000
EF8000
FFC000
F9E000
F8E000
F07000
E07800
E03C00
E01C00
E00E00
E00700
E00780
E00380
E001C0
000000
018000
038000
030000
070000
060000
0E0000
ENDCHAR
STARTCHAR 0137
ENCODING 311
SWIDTH 498 0
DWIDTH 18 0
BBX 16 34 2 -7
BITMAP
E000
E000
E000
E000
E000
E000
E000
E00E
E01C
E03C
E038
E070
E0E0
E1E0
E1C0
E380
E700
EF00
EF80
FFC0
F9E0
F0E0
F070
E038
E01C
E01E
E00F
0000
0300
0700
0600
0600
0C00
0C00
ENDCHAR
STARTCHAR 0139
ENCODING 313
SWIDTH 470 0
DWIDTH 17 0
BBX 14 34 3 1
BITMAP
0180
07C0
1F00
3C00
3800
0000
0000
E000
E000
E000
E000
E000
E000
E000
E000
E000
E000
E000
E000
E000
E000
E000
E000
E000
E000
E000
E000
E000
E000
E000
E000
E000
FFFC
FFFC
ENDCHAR
STARTCHAR 013A
ENCODING 314
SWIDTH 193 0
DWIDTH 7 0
BBX 8 34 1 1
BITMAP
07
1F
7C
F0
E0
00
00
70
70
70
70
70
70
70
70
70
70
70
70
70
70
70
70
70
70
70
70
70
70
70
70
70
70
70
ENDCHAR
STARTCHAR 013B
ENCODING 315
SWIDTH 470 0
DWIDTH 17 0
BBX 14 35 3 -8
BITMAP
E000
E000
E000
E000
E000
E000
E000
E000
E000
E000
E000
E000
E000
E000
E000
E000
E000
E000
E000
E000
E000
E000
E000
E000
E000
FFFC
FFFC
0000
0000
0300
0600
0600
0E00
0C00
1C00
ENDCHAR
STARTCHAR 013C
ENCODING 316
SWIDTH 193 0
DWIDTH 7 0
BBX 5 35 0 -8
BITMAP
38
38
38
38
38
38
38
38
38
38
38
38
38
38
38
38
38
38
38
38
38
38
38
38
38
38
38
00
00
38
38
70
60
E0
C0
ENDCHAR
STARTCHAR 013D
ENCODING 317
SWIDTH 470 0
DWIDTH 17 0
BBX 14 27 3 0
BITMAP
E018
E018
E038
E030
E070
E060
E000
E000
E000
E000
E000
E000
E000
E000
E000
E000
E000
E000
E000
E000
E000
E000
E000
E000
E000
FFFC
FFFC
ENDCHAR
STARTCHAR 013E
ENCODING 318
SWIDTH 249 0
DWIDTH 9 0
BBX 9 27 2 0
BITMAP
E180
E380
E300
E700
E600
EE00
E000
E000
E000
E000
E000
E000
E000
E000
E000
E000
E000
E000
E000
E000
E000
E000
E000
E000
E000
E000
E000
ENDCHAR
STARTCHAR 0141
ENCODING 321
SWIDTH 526 0
DWIDTH 19 0
BBX 17 27 2 0
BITMAP
1C0000
1C0000
1C0000
1C0000
1C0000
1C0000
1C0000
1C0000
1C6000
1CE000
1DC000
1F8000
1F0000
3C0000
7C0000
FC0000
DC0000
1C0000
1C0000
1C0000
1C0000
1C0000
1C0000
1C0000
1C0000
1FFF80
1FFF80
ENDCHAR
STARTCHAR 0142
ENCODING 322
SWIDTH 304 0
DWIDTH 11 0
BBX 9 27 1 0
BITMAP
1C00
1C00
1C00
1C00
1C00
1C00
1C00
1C00
1C80
1D80
1F80
1F00
1C00
7C00
FC00
DC00
9C00
1C00
1C00
1C00
1C00
1C00
1C00
1C00
1C00
1C00
1C00
ENDCHAR
STARTCHAR 0143
ENCODING 323
SWIDTH 747 0
DWIDTH 27 0
BBX 21 34 3 1
BITMAP
000E00
001E00
007C00
01F000
00C000
000000
000000
F00038
F80038
F80038
FC0038
EE0038
EE0038
E70038
E38038
E38038
E1C038
E0C038
E0E038
E07038
E07038
E03838
E01C38
E01C38
E00E38
E00738
E00738
E003B8
E001F8
E001F8
E000F8
E00078
E00078
E00038
ENDCHAR
STARTCHAR 0144
ENCODING 324
SWIDTH 609 0
DWIDTH 22 0
BBX 18 28 2 1
BITMAP
000800
003C00
00F800
03E000
03C000
010000
000000
000000
E3F000
E7FC00
EF3F00
F80700
F00380
F00380
E001C0
E001C0
E001C0
E001C0
E001C0
E001C0
E001C0
E001C0
E001C0
E001C0
E001C0
E001C0
E001C0
E001C0
ENDCHAR
STARTCHAR 0145
ENCODING 325
SWIDTH 747 0
DWIDTH 27 0
BBX 21 34 3 -7
BITMAP
F00038
F80038
F80038
FC0038
EE0038
EE0038
E70038
E38038
E38038
E1C038
E0C038
E0E038
E07038
E07038
E03838
E01C38
E01C38
E00E38
E00738
E00738
E003B8
E001F8
E001F8
E000F8
E00078
E00078
E00038
000000
007000
006000
006000
00C000
00C000
018000
ENDCHAR
STARTCHAR 0146
ENCODING 326
SWIDTH 609 0
DWIDTH 22 0
BBX 18 27 2 -7
BITMAP
E3F000
E7FC00
EF3F00
F80700
F00380
F00380
E001C0
E001C0
E001C0
E001C0
E001C0
E001C0
E001C0
E001C0
E001C0
E001C0
E001C0
E001C0
E001C0
E001C0
000000
00C000
01C000
018000
018000
030000
030000
ENDCHAR
STARTCHAR 0147
ENCODING 327
SWIDTH 747 0
DWIDTH 27 0
BBX 21 34 3 0
BITMAP
070700
038E00
01DC00
00F800
007000
000000
000000
F00038
F80038
F80038
FC0038
EE0038
EE0038
E70038
E38038
E38038
E1C038
E0C038
E0E038
E07038
E07038
E03838
E01C38
E01C38
E00E38
E00738
E00738
E003B8
E001F8
E001F8
E000F8
E00078
E00078
E00038
ENDCHAR
STARTCHAR 0148
ENCODING 328
SWIDTH 609 0
DWIDTH 22 0
BBX 18 28 2 0
BITMAP
1C1E00
0E3C00
077800
03F000
01E000
000000
000000
000000
E3F000
E7FC00
EF3F00
F80700
F00380
F00380
E001C0
E001C0
E001C0
E001C0
E001C0
E001C0
E001C0
E001C0
E001C0
E001C0
E001C0
E001C0
E001C0
E001C0
ENDCHAR
STARTCHAR 014C
ENCODING 332
SWIDTH 858 0
DWIDTH 31 0
BBX 29 32 1 1
BITMAP
00FFF800
00FFF800
00000000
00000000
00000000
001FE000
00FFF800
03FDFE00
07C01F00
0F000780
1E0003C0
3C0001E0
380000F0
70000070
70000070
70000038
E0000038
E0000038
E0000038
E0000038
E0000038
F0000038
70000070
70000070
380000F0
3C0000E0
1E0001C0
0F000780
07C00F00
03FDFE00
00FFF800
001FC000
ENDCHAR
STARTCHAR 014D
ENCODING 333
SWIDTH 664 0
DWIDTH 24 0
BBX 22 27 1 0
BITMAP
07FF80
07FF80
000000
000000
000000
000000
000000
00FC00
07FF80
0F87C0
1E01E0
380070
780038
700038
60001C
E0001C
E0001C
E0001C
E0001C
60001C
700038
780038
380070
1E01E0
0F87C0
07FF80
00FC00
ENDCHAR
STARTCHAR 0150
ENCODING 336
SWIDTH 858 0
DWIDTH 31 0
BBX 29 34 1 1
BITMAP
00008300
0001C700
00078E00
000F1C00
001C7800
00183000
00000000
001FE000
00FFF800
03FDFE00
07C01F00
0F000780
1E0003C0
3C0001E0
380000F0
70000070
70000070
70000038
E0000038
E0000038
E0000038
E0000038
E0000038
F0000038
70000070
70000070
380000F0
3C0000E0
1E0001C0
0F000780
07C00F00
03FDFE00
00FFF800
001FC000
ENDCHAR
STARTCHAR 0151
ENCODING 337
SWIDTH 664 0
DWIDTH 24 0
BBX 22 28 1 1
BITMAP
001820
003C70
0071E0
00E3C0
01C780
018600
000000
000000
00FC00
07FF80
0F87C0
1E01E0
380070
780038
700038
60001C
E0001C
E0001C
E0001C
E0001C
60001C
700038
780038
380070
1E01E0
0F87C0
07FF80
00FC00
ENDCHAR
STARTCHAR 0154
ENCODING 340
SWIDTH 609 0
DWIDTH 22 0
BBX 19 34 2 1
BITMAP
003800
00F800
03F000
07C000
070000
000000
000000
FFF000
FFFE00
E0FF00
E00780
E003C0
E001C0
E000E0
E000E0
E000E0
E000E0
E000E0
E001C0
E001C0
E00380
E01F80
E3FF00
E1FC00
E0E000
E0F000
E07800
E03800
E01C00
E01E00
E00F00
E00700
E00380
E003C0
ENDCHAR
STARTCHAR 0155
ENCODING 341
SWIDTH 304 0
DWIDTH 11 0
BBX 10 28 2 1
BITMAP
0080
03C0
0F80
3E00
3800
1000
0000
0000
E380
EF80
FF80
FC00
F000
F000
E000
E000
E000
E000
E000
E000
E000
E000
E000
E000
E000
E000
E000
E000
ENDCHAR
STARTCHAR 0156
ENCODING 342
SWIDTH 609 0
DWIDTH 22 0
BBX 19 34 2 -7
BITMAP
FFF000
FFFE00
E0FF00
E00780
E003C0
E001C0
E000E0
E000E0
E000E0
E000E0
E000E0
E001C0
E001C0
E00380
E01F80
E3FF00
E1FC00
E0E000
E0F000
E07800
E03800
E01C00
E01E00
E00F00
E00780
E00380
E003C0
000000
00C000
01C000
018000
038000
030000
070000
ENDCHAR
STARTCHAR 0157
ENCODING 343
SWIDTH 304 0
DWIDTH 11 0
BBX 11 28 0 -8
BITMAP
38E0
3BE0
3FE0
3F00
3C00
3C00
3800
3800
3800
3800
3800
3800
3800
3800
3800
3800
3800
3800
3800
3800
0000
0000
1800
3800
3000
7000
6000
E000
ENDCHAR
STARTCHAR 0158
ENCODING 344
SWIDTH 609 0
DWIDTH 22 0
BBX 19 34 2 0
BITMAP
1C1E00
0E3C00
077800
03F000
01C000
000000
000000
FFF000
FFFE00
E0FF00
E00780
E003C0
E001C0
E000E0
E000E0
E000E0
E000E0
E000E0
E001C0
E001C0
E00380
E01F80
E3FF00
E1FC00
E0E000
E0F000
E07800
E03800
E01C00
E01E00
E00F00
E00700
E00380
E003C0
ENDCHAR
STARTCHAR 0159
ENCODING 345
SWIDTH 304 0
DWIDTH 11 0
BBX 12 28 0 0
BITMAP
F070
78E0
3DC0
0F80
0700
0000
0000
0000
38E0
3BE0
3FE0
3F00
3C00
3C00
3800
3800
3800
3800
3800
3800
3800
3800
3800
3800
3800
3800
3800
3800
ENDCHAR
STARTCHAR 015A
ENCODING 346
SWIDTH 498 0
DWIDTH 18 0
BBX 18 34 0 1
BITMAP
001800
007800
01F800
07E000
078000
020000
000000
03F000
0FFC00
1FFE00
3C0F00
380700
700380
700380
700000
700000
380000
3E0000
1FC000
07F800
01FE00
001F00
000780
000380
0001C0
0001C0
E001C0
7001C0
7001C0
700380
3C0700
1FFF00
0FFC00
03F000
ENDCHAR
STARTCHAR 015B
ENCODING 347
SWIDTH 387 0
DWIDTH 14 0
BBX 13 28 1 1
BITMAP
00C0
03E0
07C0
1F00
1C00
0800
0000
0000
0F80
1FC0
3DE0
7070
7070
7000
7000
7C00
3F00
1FC0
03F0
00F0
0078
0038
E038
E038
7070
78F0
3FE0
0F80
ENDCHAR
STARTCHAR 0160
ENCODING 352
SWIDTH 498 0
DWIDTH 18 0
BBX 18 34 0 0
BITMAP
1C0E00
0E3C00
077800
03F000
01E000
000000
000000
03F000
0FFC00
1FFE00
3C0F00
380700
700380
700380
700000
700000
380000
3E0000
1FC000
07F800
01FE00
001F00
000780
000380
0001C0
0001C0
E001C0
7001C0
7001C0
700380
3C0700
1FFF00
0FFC00
03F000
ENDCHAR
STARTCHAR 0161
ENCODING 353
SWIDTH 387 0
DWIDTH 14 0
BBX 13 28 1 0
BITMAP
F070
78E0
3DC0
0F80
0700
0000
0000
0000
0F80
1FC0
3DE0
7070
7070
7000
7000
7C00
3F00
1FC0
03F0
00F0
0078
0038
E038
E038
7070
78F0
3FE0
0F80
ENDCHAR
STARTCHAR 0162
ENCODING 354
SWIDTH 415 0
DWIDTH 15 0
BBX 15 35 0 -8
BITMAP
FFFE
FFFE
0380
0380
0380
0380
0380
0380
0380
0380
0380
0380
0380
0380
0380
0380
0380
0380
0380
0380
0380
0380
0380
0380
0380
0380
0380
0000
0000
0380
0300
0700
0600
0600
0C00
ENDCHAR
STARTCHAR 0163
ENCODING 355
SWIDTH 332 0
DWIDTH 12 0
BBX 12 35 1 -8
BITMAP
0E00
0E00
0E00
0E00
0E00
0E00
0E00
FFF0
FFF0
0E00
0E00
0E00
0E00
0E00
0E00
0E00
0E00
0E00
0E00
0E00
0E00
0E00
0E00
0E00
0E00
0E00
0E00
0000
0000
0E00
0E00
0C00
1C00
1800
3000
ENDCHAR
STARTCHAR 0164
ENCODING 356
SWIDTH 415 0
DWIDTH 15 0
BBX 15 34 0 0
BITMAP
7838
3C70
0EE0
07C0
0380
0000
0000
FFFE
FFFE
0380
0380
0380
0380
0380
0380
0380
0380
0380
0380
0380
0380
0380
0380
0380
0380
0380
0380
0380
0380
0380
0380
0380
0380
0380
ENDCHAR
STARTCHAR 0165
ENCODING 357
SWIDTH 360 0
DWIDTH 13 0
BBX 14 28 1 0
BITMAP
001C
0E18
0E38
0E30
0E70
0E60
0E00
0E00
FFF0
FFF0
0E00
0E00
0E00
0E00
0E00
0E00
0E00
0E00
0E00
0E00
0E00
0E00
0E00
0E00
0E00
0E00
0E00
0E00
ENDCHAR
STARTCHAR 016A
ENCODING 362
SWIDTH 664 0
DWIDTH 24 0
BBX 18 32 3 1
BITMAP
1FFE00
1FFE00
000000
000000
000000
E001C0
E001C0
E001C0
E001C0
E001C0
E001C0
E001C0
E001C0
E001C0
E001C0
E001C0
E001C0
E001C0
E001C0
E001C0
E001C0
E001C0
E001C0
E001C0
E001C0
E001C0
700380
780380
3C0700
1FBE00
0FFC00
03F000
ENDCHAR
STARTCHAR 016B
ENCODING 363
SWIDTH 609 0
DWIDTH 22 0
BBX 18 27 2 0
BITMAP
1FFE00
1FFE00
000000
000000
000000
000000
000000
E001C0
E001C0
E001C0
E001C0
E001C0
E001C0
E001C0
E001C0
E001C0
E001C0
E001C0
E001C0
E001C0
E001C0
7003C0
7003C0
7807C0
3F3DC0
1FF9C0
03F1C0
ENDCHAR
STARTCHAR 016E
ENCODING 366
SWIDTH 664 0
DWIDTH 24 0
BBX 18 35 3 1
BITMAP
01E000
03F000
073800
061800
061800
073800
03F000
01E000
E001C0
E001C0
E001C0
E001C0
E001C0
E001C0
E001C0
E001C0
E001C0
E001C0
E001C0
E001C0
E001C0
E001C0
E001C0
E001C0
E001C0
E001C0
E001C0
E001C0
E001C0
700380
780380
3C0F00
1FBE00
0FFC00
03F000
ENDCHAR
STARTCHAR 016F
ENCODING 367
SWIDTH 609 0
DWIDTH 22 0
BBX 18 30 2 0
BITMAP
01E000
03F000
073800
061800
061800
073800
03F000
01E000
000000
000000
E001C0
E001C0
E001C0
E001C0
E001C0
E001C0
E001C0
E001C0
E001C0
E001C0
E001C0
E001C0
E001C0
E001C0
7003C0
7003C0
7807C0
3F3DC0
1FF9C0
03F1C0
ENDCHAR
STARTCHAR 0170
ENCODING 368
SWIDTH 664 0
DWIDTH 24 0
BBX 18 35 3 0
BITMAP
004100
00C380
01C780
038E00
071C00
0E3800
041000
000000
E001C0
E001C0
E001C0
E001C0
E001C0
E001C0
E001C0
E001C0
E001C0
E001C0
E001C0
E001C0
E001C0
E001C0
E001C0
E001C0
E001C0
E001C0
E001C0
E001C0
E001C0
700380
780380
3C0700
1FBE00
0FFC00
03F000
ENDCHAR
STARTCHAR 0171
ENCODING 369
SWIDTH 609 0
DWIDTH 22 0
BBX 18 29 2 0
BITMAP
004000
00E380
01C780
038F00
071E00
0E3800
041000
000000
000000
E001C0
E001C0
E001C0
E001C0
E001C0
E001C0
E001C0
E001C0
E001C0
E001C0
E001C0
E001C0
E001C0
E001C0
7003C0
7003C0
7807C0
3F3DC0
1FF9C0
03F1C0
ENDCHAR
STARTCHAR 0172
ENCODING 370
SWIDTH 664 0
DWIDTH 24 0
BBX 18 34 3 -7
BITMAP
E001C0
E001C0
E001C0
E001C0
E001C0
E001C0
E001C0
E001C0
E001C0
E001C0
E001C0
E001C0
E001C0
E001C0
E001C0
E001C0
E001C0
E001C0
E001C0
E001C0
E001C0
700380
780380
3C0700
1FBF00
0FFC00
03F800
00E000
00C000
018000
018000
018000
00F800
007800
ENDCHAR
STARTCHAR 0173
ENCODING 371
SWIDTH 609 0
DWIDTH 22 0
BBX 18 27 2 -7
BITMAP
E001C0
E001C0
E001C0
E001C0
E001C0
E001C0
E001C0
E001C0
E001C0
E001C0
E001C0
E001C0
E001C0
E001C0
7003C0
7003C0
7807C0
3E3DC0
1FF9C0
07E1C0
000380
000600
000C00
000C00
000C00
0007C0
0003C0
ENDCHAR
STARTCHAR 0179
ENCODING 377
SWIDTH 470 0
DWIDTH 17 0
BBX 17 34 0 1
BITMAP
003000
00F800
03E000
0F8000
060000
000000
000000
FFFF80
FFFF80
000380
000700
000F00
000E00
001C00
003C00
003800
007800
007000
00E000
01E000
01C000
038000
038000
070000
0F0000
0E0000
1C0000
3C0000
380000
700000
700000
E00000
FFFF80
FFFF80
ENDCHAR
STARTCHAR 017A
ENCODING 378
SWIDTH 415 0
DWIDTH 15 0
BBX 15 29 0 0
BITMAP
0020
0060
01F0
07C0
0F00
0C00
0000
0000
0000
FFFC
FFFC
001C
0038
0038
0070
00E0
01E0
01C0
0380
0700
0700
0E00
1C00
3C00
3800
7000
E000
FFFE
FFFE
ENDCHAR
STARTCHAR 017B
ENCODING 379
SWIDTH 470 0
DWIDTH 17 0
BBX 17 34 0 0
BITMAP
01C000
01C000
01C000
01C000
01C000
000000
000000
7FFF80
7FFF80
000380
000700
000E00
000E00
001C00
001C00
003800
007000
007000
00E000
00E000
01C000
038000
038000
070000
070000
0E0000
1C0000
1C0000
380000
380000
700000
E00000
FFFF80
FFFF80
ENDCHAR
STARTCHAR 017C
ENCODING 380
SWIDTH 415 0
DWIDTH 15 0
BBX 15 28 0 0
BITMAP
0380
0380
0380
0380
0380
0000
0000
0000
7FFC
7FFC
001C
0038
0038
0070
00E0
00E0
01C0
0380
0700
0700
0E00
1C00
1C00
3800
7000
E000
FFFE
FFFE
ENDCHAR
STARTCHAR 017D
ENCODING 381
SWIDTH 470 0
DWIDTH 17 0
BBX 17 34 0 0
BITMAP
3C1C00
1E3800
0F7000
07E000
01C000
000000
000000
FFFF80
FFFF80
000780
000700
000F00
000E00
001C00
003C00
003800
007800
007000
00E000
01E000
01C000
038000
038000
070000
0F0000
0E0000
1C0000
3C0000
380000
700000
700000
E00000
FFFF80
FFFF80
ENDCHAR
STARTCHAR 017E
ENCODING 382
SWIDTH 415 0
DWIDTH 15 0
BBX 15 28 0 0
BITMAP
7838
3C70
1EE0
0FC0
0380
0000
0000
0000
FFFC
FFFC
001C
0038
0038
0070
00E0
01E0
01C0
0380
0700
0700
0E00
1C00
3C00
3800
7000
E000
FFFE
FFFE
ENDCHAR
STARTCHAR 0218
ENCODING 536
SWIDTH 498 0
DWIDTH 18 0
BBX 18 35 0 -8
BITMAP
03F000
0FFC00
1FFE00
3C0F00
380700
700380
700380
700000
700000
380000
3E0000
1FC000
07F800
01FE00
001F00
000780
000380
0001C0
0001C0
E001C0
7001C0
7001C0
700380
3C0700
1FFF00
0FFC00
03F000
000000
000000
00C000
01C000
018000
038000
030000
070000
ENDCHAR
STARTCHAR 0219
ENCODING 537
SWIDTH 387 0
DWIDTH 14 0
BBX 13 28 1 -8
BITMAP
0F80
1FC0
3DE0
7070
7070
7000
7000
7C00
3F00
1FC0
03F0
00F0
0078
0038
E038
E038
7070
78F0
3FE0
0F80
0000
0000
0300
0600
0600
0C00
0C00
1C00
ENDCHAR
STARTCHAR 021A
ENCODING 538
SWIDTH 415 0
DWIDTH 15 0
BBX 15 35 0 -8
BITMAP
FFFE
FFFE
0380
0380
0380
0380
0380
0380
0380
0380
0380
0380
0380
0380
0380
0380
0380
0380
0380
0380
0380
0380
0380
0380
0380
0380
0380
0000
0000
0380
0300
0700
0600
0600
0C00
ENDCHAR
STARTCHAR 021B
ENCODING 539
SWIDTH 332 0
DWIDTH 12 0
BBX 12 35 1 -8
BITMAP
0E00
0E00
0E00
0E00
0E00
0E00
0E00
FFF0
FFF0
0E00
0E00
0E00
0E00
0E00
0E00
0E00
0E00
0E00
0E00
0E00
0E00
0E00
0E00
0E00
0E00
0E00
0E00
0000
0000
0E00
0E00
0C00
1C00
1800
3000
ENDCHAR
STARTCHAR 02C7
ENCODING 711
SWIDTH 498 0
DWIDTH 18 0
BBX 12 5 3 23
BITMAP
E0F0
71C0
3B80
1F00
0E00
ENDCHAR
STARTCHAR 02D8
ENCODING 728
SWIDTH 443 0
DWIDTH 16 0
BBX 13 3 2 23
BITMAP
E038
7FF0
1FC0
ENDCHAR
STARTCHAR 02D9
ENCODING 729
SWIDTH 221 0
DWIDTH 8 0
BBX 3 5 3 23
BITMAP
E0
E0
E0
E0
E0
ENDCHAR
STARTCHAR 02DB
ENCODING 731
SWIDTH 304 0
DWIDTH 11 0
BBX 6 7 3 -6
BITMAP
30
60
C0
C0
C0
7C
3C
ENDCHAR
STARTCHAR 02DD
ENCODING 733
SWIDTH 553 0
DWIDTH 20 0
BBX 14 7 4 22
BITMAP
0008
0E1C
1E38
3C70
71E0
E1C0
4000
ENDCHAR
STARTCHAR 0394
ENCODING 916
SWIDTH 609 0
DWIDTH 22 0
BBX 22 25 0 1
BITMAP
001000
001000
003800
003800
003C00
007C00
005C00
00DE00
009E00
018F00
010F00
030700
020780
060780
0403C0
0C03C0
0C01E0
1801E0
1801E0
1000F0
3000F0
200078
600078
7FFFF8
FFFFFC
ENDCHAR
STARTCHAR 03BC
ENCODING 956
SWIDTH 609 0
DWIDTH 22 0
BBX 16 26 3 -7
BITMAP
E007
E007
E007
E007
E007
E007
E007
E007
E007
E007
E007
E007
E007
E007
F007
F00F
F81F
FE7F
EFF7
E7C7
E000
E000
E000
E000
E000
E000
ENDCHAR
STARTCHAR 2013
ENCODING 8211
SWIDTH 498 0
DWIDTH 18 0
BBX 16 2 1 10
BITMAP
FFFF
FFFF
ENDCHAR
STARTCHAR 2014
ENCODING 8212
SWIDTH 996 0
DWIDTH 36 0
BBX 34 2 1 10
BITMAP
FFFFFFFFC0
FFFFFFFFC0
ENDCHAR
STARTCHAR 2018
ENCODING 8216
SWIDTH 360 0
DWIDTH 13 0
BBX 6 7 3 19
BITMAP
E0
60
70
30
38
18
1C
ENDCHAR
STARTCHAR 2019
ENCODING 8217
SWIDTH 360 0
DWIDTH 13 0
BBX 6 7 3 19
BITMAP
1C
18
38
30
70
70
E0
ENDCHAR
STARTCHAR 201A
ENCODING 8218
SWIDTH 360 0
DWIDTH 13 0
BBX 6 7 3 -2
BITMAP
1C
18
38
30
70
70
E0
ENDCHAR
STARTCHAR 201C
ENCODING 8220
SWIDTH 498 0
DWIDTH 18 0
BBX 11 7 4 19
BITMAP
E700
6380
7380
3180
39C0
38C0
1CE0
ENDCHAR
STARTCHAR 201D
ENCODING 8221
SWIDTH 470 0
DWIDTH 17 0
BBX 11 7 3 19
BITMAP
1CE0
38C0
39C0
3180
7380
6380
E700
ENDCHAR
STARTCHAR 201E
ENCODING 8222
SWIDTH 498 0
DWIDTH 18 0
BBX 11 7 3 -2
BITMAP
1CE0
38C0
39C0
3180
7380
6380
E700
ENDCHAR
STARTCHAR 2020
ENCODING 8224
SWIDTH 553 0
DWIDTH 20 0
BBX 16 32 2 -6
BITMAP
01C0
01C0
01C0
01C0
01C0
01C0
01C0
01C0
FFFF
FFFF
01C0
01C0
01C0
01C0
01C0
01C0
01C0
01C0
01C0
01C0
01C0
01C0
01C0
01C0
01C0
01C0
01C0
01C0
01C0
01C0
01C0
01C0
ENDCHAR
STARTCHAR 2021
ENCODING 8225
SWIDTH 553 0
DWIDTH 20 0
BBX 16 32 2 -5
BITMAP
01C0
01C0
01C0
01C0
01C0
01C0
01C0
01C0
FFFF
FFFF
01C0
01C0
01C0
01C0
01C0
01C0
01C0
01C0
01C0
01C0
01C0
01C0
FFFF
FFFF
01C0
01C0
01C0
01C0
01C0
01C0
01C0
01C0
ENDCHAR
STARTCHAR 2022
ENCODING 8226
SWIDTH 609 0
DWIDTH 22 0
BBX 11 11 5 8
BITMAP
1F00
3F80
7FC0
FFE0
FFE0
FFE0
FFE0
FFE0
7FC0
3F80
1F00
ENDCHAR
STARTCHAR 2026
ENCODING 8230
SWIDTH 996 0
DWIDTH 36 0
BBX 27 5 5 0
BITMAP
E00E00E0
E00E00E0
E00E00E0
E00E00E0
E00E00E0
ENDCHAR
STARTCHAR 2030
ENCODING 8240
SWIDTH 1163 0
DWIDTH 42 0
BBX 41 27 1 0
BITMAP
0FC01C000000
1FE018000000
387038000000
703830000000
E01C70000000
E01C60000000
E01CC0000000
E01CC0000000
E01D80000000
703B80000000
387300000000
1FE700000000
0FC600000000
000E00000000
000C7E01F800
0018FF83FE00
0019C3C70F00
003381CE0700
007300EC0380
006700FC0380
00E700FC0380
00C700FC0380
01C300EC0380
018381CE0700
0301C3C70F00
0300FF03FC00
06007E01F800
ENDCHAR
STARTCHAR 2039
ENCODING 8249
SWIDTH 249 0
DWIDTH 9 0
BBX 6 15 1 3
BITMAP
08
1C
18
38
30
70
E0
E0
E0
70
30
38
18
1C
08
ENDCHAR
STARTCHAR 203A
ENCODING 8250
SWIDTH 249 0
DWIDTH 9 0
BBX 6 15 1 3
BITMAP
40
E0
60
70
30
38
1C
1C
18
38
30
70
60
E0
40
ENDCHAR
STARTCHAR 20AC
ENCODING 8364
SWIDTH 553 0
DWIDTH 20 0
BBX 17 27 1 0
BITMAP
00FE00
01FF80
07FF80
070080
0E0000
0C0000
1C0000
1C0000
180000
380000
FFFE00
FFFE00
380000
380000
380000
FFFC00
FFF800
380000
180000
1C0000
1C0000
1C0000
0E0000
070080
07FF80
03FF80
00FE00
ENDCHAR
STARTCHAR 2122
ENCODING 8482
SWIDTH 996 0
DWIDTH 36 0
BBX 30 16 0 11
BITMAP
FFCF003C
FFCF003C
0E0F807C
0E0F807C
0E0E805C
0E0EC0DC
0E0EC0DC
0E0E619C
0E0E619C
0E0E331C
0E0E331C
0E0E331C
0E0E1E1C
0E0E1E1C
0E0E0C1C
0E0E0C1C
ENDCHAR
STARTCHAR 2202
ENCODING 8706
SWIDTH 470 0
DWIDTH 17 0
BBX 16 27 1 -2
BITMAP
1F80
3FE0
3070
0038
001C
000E
000E
0006
0006
0007
0007
0007
07C7
1FE7
3C1F
780F
700F
700F
E00E
E00E
E01E
E01C
E03C
6038
7078
38F0
0FC0
ENDCHAR
STARTCHAR 2206
ENCODING 8710
SWIDTH 609 0
DWIDTH 22 0
BBX 22 25 0 1
BITMAP
001000
001000
003800
003800
003C00
007C00
005C00
00DE00
009E00
018F00
010F00
030700
020780
060780
0403C0
0C03C0
0C01E0
1801E0
1801E0
1000F0
3000F0
200078
600078
7FFFF8
FFFFFC
ENDCHAR
STARTCHAR 2211
ENCODING 8721
SWIDTH 609 0
DWIDTH 22 0
BBX 20 26 1 1
BITMAP
FFFFC0
7FFFC0
3800C0
1C0040
1E0040
0F0000
070000
038000
03C000
01E000
00E000
007000
007800
003800
003000
006000
00C000
01C000
038000
070010
060010
0C0010
180020
3000E0
7FFFE0
FFFFE0
ENDCHAR
STARTCHAR 2219
ENCODING 8729
SWIDTH 276 0
DWIDTH 10 0
BBX 3 5 4 7
BITMAP
E0
E0
E0
E0
E0
ENDCHAR
STARTCHAR 221A
ENCODING 8730
SWIDTH 443 0
DWIDTH 16 0
BBX 16 29 0 -3
BITMAP
0003
0003
0003
0006
0006
0006
0006
0006
0006
000E
000C
080C
380C
FC0C
CC0C
0E1C
0618
0718
0318
0398
0198
01F8
00F0
00F0
0070
0070
0030
0030
0010
ENDCHAR
STARTCHAR 2260
ENCODING 8800
SWIDTH 553 0
DWIDTH 20 0
BBX 19 20 0 -1
BITMAP
000600
000F00
000E00
001C00
001C00
FFFFE0
FFFFE0
007000
00E000
00E000
01C000
01C000
03C000
FFFFE0
FFFFE0
070000
0E0000
1C0000
1C0000
080000
ENDCHAR
STARTCHAR 2264
ENCODING 8804
SWIDTH 553 0
DWIDTH 20 0
BBX 18 24 1 1
BITMAP
000040
0001C0
000FC0
003F00
00FC00
03F000
1FC000
7E0000
F80000
F00000
FC0000
3F0000
0FC000
03F000
00FC00
001F80
0007C0
0001C0
000040
000000
000000
FFFFC0
FFFFC0
FFFFC0
ENDCHAR
STARTCHAR 2265
ENCODING 8805
SWIDTH 553 0
DWIDTH 20 0
BBX 18 24 1 1
BITMAP
800000
E00000
FC0000
3F0000
0FC000
03F000
00FE00
001F80
0007C0
0003C0
000FC0
003F00
00FC00
03F000
0FC000
7E0000
F80000
E00000
800000
000000
000000
FFFFC0
FFFFC0
FFFFC0
ENDCHAR
STARTCHAR 25CA
ENCODING 9674
SWIDTH 470 0
DWIDTH 17 0
BBX 16 26 1 1
BITMAP
03C0
03C0
07E0
07E0
0E70
0E70
1C38
1C38
381C
381C
700E
600E
E007
E007
700E
700E
381C
381C
1C38
1C30
0E70
0660
07E0
03C0
03C0
0180
ENDCHAR
ENDFONT
